<svg width="100" height="100" viewBox="0 0 100 100" fill="none" xmlns="http://www.w3.org/2000/svg">
<path d="M66.7336 18.6611C54.3726 5.89091 30.0959 9.68256 22.2889 25.6006L7.18486 56.3939C-1.11824 73.323 15.4823 90.5353 36.0985 86.3695L73.6652 78.7789C93.0862 74.8562 101.585 54.6562 89.198 41.8618L66.7336 18.6611Z" fill="#FAE041"/>
<path d="M66.7336 18.6611C54.3726 5.89091 30.0959 9.68256 22.2889 25.6006L7.18486 56.3939C-1.11824 73.323 15.4823 90.5353 36.0985 86.3695L73.6652 78.7789C93.0862 74.8562 101.585 54.6562 89.198 41.8618L66.7336 18.6611Z" fill="#FAE041"/>
<path d="M71.5008 19.4995C77.2924 23.7568 72.0863 25.4586 73.0008 28.4995C74.0414 31.96 77.7868 34.8361 79.5008 39.4995C81.3829 44.6202 80.0007 46.9995 80.5008 48.9995C81.0008 50.9995 83.3627 54.1258 85.0008 56.9995C86.6234 59.8461 81.5626 60.6836 80.5008 62.4995C79.182 64.7548 81.0828 63.7135 81.5008 67.4995C81.6901 69.2141 86.8023 70.4516 84.0008 73.9995C82.7033 75.6428 89.0612 75.427 86.5008 78.4995C84.0008 81.4995 77.2964 85.3131 71.5008 86.4995C66.5576 87.5113 45.5583 87.4011 32.5008 88.9995C29.4224 89.3763 17.8121 87.9995 15.9997 87.9995C12.4997 88.9995 19.5011 88.999 15 89.999C8.75566 90.2841 13.4998 87.999 14.0008 84.999C14.4812 82.1223 15.7695 84.999 17.5008 81.499C18.2179 80.0492 15.4489 82.2167 15.9997 79.999C16.6918 77.2122 18.6779 67.6764 18.5008 66.999C17.4304 62.9057 17.1834 59.2592 17.5008 56.9995C18.2681 51.5371 20.594 49.79 20.0008 47.499C18.6079 42.1201 19.0019 39.2695 20.0008 35.999C21.4333 31.3088 22.9415 30.9261 26.5008 27.999C28.0452 26.7289 29.6201 17.8834 35.5008 13.999C40.6512 10.597 39.6909 12.9572 43.5008 13.9996C45.5265 13.5853 48.104 12.4315 51.0008 10.9016C57.9001 8.32701 60.6657 12.642 63.5008 16.4993C66.2885 18.3979 69.1821 17.7951 71.5008 19.4995Z" fill="white"/>
<path fill-rule="evenodd" clip-rule="evenodd" d="M61.307 72.7758C60.2075 70.2423 59.7773 67.7087 59.8251 65.0796C59.5103 64.9747 59.2979 65.1256 59.0943 65.2704C59.0196 65.3235 58.946 65.3757 58.869 65.4142C55.8097 67.0873 52.5113 67.3741 49.213 66.9917C48.1194 66.863 47.0908 66.4314 46.0689 66.0026C45.572 65.7941 45.0766 65.5863 44.5762 65.4142C44.4646 65.3824 44.3637 65.3292 44.2628 65.2761C44.061 65.1699 43.8591 65.0637 43.5723 65.1274C43.7157 68.378 43.1421 71.5807 42.186 74.7357C42.656 74.7161 43.1019 74.6484 43.5401 74.5818C44.1718 74.4859 44.7875 74.3924 45.4366 74.4489C45.9624 74.4967 46.4405 74.5445 46.8229 74.8313C47.3965 75.2137 47.3009 75.5483 46.6795 75.8829C45.7234 76.4088 44.6718 76.5522 43.6201 76.6956C38.7921 77.556 34.2509 79.1335 29.9487 81.428C26.3635 83.3879 23.4475 86.1126 21.0096 89.3632C20.675 89.8412 20.2926 90.2714 19.9102 90.6538C19.5756 90.9884 19.1931 91.3231 18.8107 91.6577C16.0382 94 13.0744 92.9962 11.1146 90.7972C10.0151 89.5544 9.10686 88.1681 9.44147 86.3516C9.72829 84.822 10.3019 83.4357 11.3536 82.2406C11.6404 81.9299 11.9152 81.6073 12.1901 81.2846C12.465 80.9619 12.7398 80.6393 13.0266 80.3285C13.4569 79.8505 13.6003 79.3247 13.5525 78.6555C13.5166 77.9743 13.4001 77.2931 13.2836 76.6119C13.2447 76.3848 13.2059 76.1578 13.1701 75.9307C12.8354 74.0186 13.0744 72.2021 14.3651 70.6725C14.8431 70.0988 15.2734 69.5252 15.7036 68.9516C16.6596 67.7087 16.9464 66.3703 16.325 64.8884C16.2645 64.7472 16.2125 64.6059 16.1618 64.4683C16.0924 64.2799 16.0254 64.0981 15.9426 63.9324C14.8909 61.7812 14.8909 59.4867 15.1777 57.1922C15.369 55.7582 16.1816 54.6587 17.1854 53.7027C18.5717 52.3642 19.2887 50.7389 19.3365 48.8268C19.3365 48.0142 19.1453 47.2493 18.9541 46.4845C18.7151 45.6241 18.4761 44.8114 18.1415 43.951C17.042 40.8916 17.3767 37.9279 18.8585 35.1076C19.7668 33.3867 20.7706 31.7136 22.3003 30.4229C22.6349 30.1361 23.0173 29.8971 23.4475 29.6581C24.3558 29.1801 25.264 28.6542 26.0289 27.9372C27.6063 26.5509 28.2756 24.7345 28.4668 22.679C28.4884 22.4703 28.5089 22.2606 28.5294 22.0502C28.6455 20.8632 28.7634 19.6572 29.0882 18.5202C29.6618 16.4169 30.7135 14.6482 32.291 13.2141C33.5816 12.0669 35.2069 11.5888 36.88 11.3976C38.5053 11.2064 40.0827 11.4454 41.469 12.3537C43.1421 13.4053 44.6718 13.2141 46.1536 11.8756C46.7751 11.302 47.4921 10.824 48.1613 10.3938C50.9817 8.62509 53.9454 8.72069 56.957 9.67674C59.7295 10.5372 61.785 12.3059 63.2669 14.696C64.3185 16.4169 65.8004 17.1339 67.6647 17.3251C67.8414 17.3472 68.0192 17.3681 68.1978 17.3892L68.1989 17.3893C69.1795 17.5048 70.1842 17.6232 71.1542 17.9465C72.4927 18.3768 73.3531 19.285 73.6878 20.6713C73.9268 21.5795 74.0702 22.5356 73.9268 23.4916C73.6878 25.3081 73.5922 27.1246 74.0224 28.9411C74.2136 29.8015 74.5004 30.6619 74.9784 31.379C75.204 31.7038 75.4261 32.032 75.6484 32.3604C76.6039 33.772 77.5617 35.187 78.8026 36.3504C79.8065 37.2587 80.6191 38.3103 81.3839 39.4098C82.4834 40.9394 82.7702 42.6125 82.6268 44.429C82.5312 45.5763 82.3878 46.7235 82.1488 47.823C81.7186 49.6395 82.2922 51.1213 83.4394 52.4598C84.2361 53.376 85.1988 54.1263 86.1615 54.8765C86.3541 55.0265 86.5466 55.1766 86.7378 55.3279C88.4587 56.7142 89.6059 58.4829 89.7971 60.7296C89.8927 61.9725 89.6537 63.1197 88.8889 64.0758C88.3631 64.745 88.3631 65.4142 88.6977 66.1313C88.8755 66.5165 89.09 66.8834 89.3071 67.2546C89.4403 67.4823 89.5743 67.7115 89.7015 67.9477C89.8688 68.2346 90.0481 68.5333 90.2274 68.8321C90.4066 69.1308 90.5859 69.4296 90.7532 69.7164C92.4263 72.6802 91.6136 76.8868 87.7416 78.8467C86.929 79.2769 86.1164 79.6593 85.1603 79.7071C84.1087 79.7549 83.2004 79.4681 82.2922 78.9901C81.042 78.3321 79.7239 77.7873 78.4158 77.2467C77.8233 77.0018 77.2326 76.7577 76.6515 76.5044C73.9268 75.3093 70.963 74.9747 68.0471 74.8791C67.4735 74.86 66.8998 74.837 66.3262 74.8141C64.0317 74.7223 61.7372 74.6305 59.4427 74.7835L59.3619 74.791C58.8548 74.839 58.2857 74.8929 58.1042 74.2576C57.9608 73.8274 58.3432 73.4928 59.2515 73.206C59.4939 73.154 59.7301 73.1083 59.9692 73.0621C60.3898 72.9808 60.8192 72.8977 61.307 72.7758ZM25.362 51.2651C25.2186 52.4601 24.9318 53.703 24.4059 54.898L24.2625 55.1848C23.8323 55.9019 23.2587 56.0931 22.7328 55.8063C22.2548 55.5195 22.1114 54.9936 22.446 54.2766C23.1153 52.9381 23.6411 51.5519 23.8801 50.07C23.9279 49.7354 24.0713 49.353 24.5015 49.353C24.9796 49.353 25.123 49.6876 25.2664 50.07C25.362 50.4524 25.362 50.787 25.362 51.2651ZM21.3455 54.0375C22.1103 52.8902 22.5884 51.5995 22.684 50.2133C22.684 49.7353 22.684 49.2572 22.445 48.7314C22.3493 48.4924 22.1581 48.3968 21.9191 48.3968C21.6801 48.3968 21.4889 48.5402 21.4411 48.7792C21.3747 48.9453 21.3544 49.1114 21.3322 49.2935C21.3224 49.3735 21.3123 49.4565 21.2977 49.544C21.1543 51.0259 20.7241 52.4122 19.5768 53.5116C19.4334 53.655 19.29 53.7985 19.2422 53.9897C19.0988 54.3243 19.051 54.7067 19.3856 54.9457C19.6724 55.1847 19.9592 55.1369 20.246 54.9935C20.6763 54.8023 21.0587 54.4677 21.3455 54.0375ZM46.4869 24.782C46.8693 24.782 47.2517 24.782 47.6341 24.8298C48.2077 24.9255 48.7336 25.1645 49.0682 25.6425C49.3072 25.9771 49.4028 26.3595 49.116 26.6941C48.877 27.0288 48.4946 27.1244 48.1121 26.9331C47.1083 26.3595 46.0088 26.3117 44.9094 26.3595H44.5748C44.288 26.3117 43.9533 26.2161 43.9055 25.8337C43.8577 25.4991 44.0967 25.2601 44.3836 25.1167C45.0528 24.8298 45.7698 24.782 46.4869 24.782ZM75.8404 51.0254C75.7195 50.8998 75.6108 50.7868 75.3138 50.7868C75.1704 50.7868 75.027 50.978 74.9314 51.1692C74.6924 51.695 74.5968 52.2209 74.5968 52.7467C74.549 53.8462 74.9314 54.8022 75.6484 55.567C75.983 55.9495 76.4611 56.0451 76.8913 55.7582C77.3215 55.4714 77.3215 55.0412 77.1781 54.611C77.1736 54.5976 77.1691 54.5837 77.1646 54.5696L77.1546 54.538C77.1135 54.408 77.067 54.2608 76.9869 54.1808C76.4611 53.4637 76.2699 52.6511 76.1264 51.8385C76.0786 51.5516 76.0308 51.3126 75.8874 51.0736C75.8713 51.0575 75.8558 51.0413 75.8404 51.0254ZM30.1866 25.7861C30.091 26.4075 29.8998 26.9333 29.613 27.4591C29.1828 28.224 28.6569 28.941 28.0833 29.5624C27.5097 30.1839 26.9839 30.2795 26.6014 29.8492C26.2668 29.4668 26.3146 29.0844 26.8882 28.463C27.0078 28.3196 27.1392 28.1881 27.2707 28.0567C27.4021 27.9252 27.5336 27.7938 27.6531 27.6503C28.1789 27.0289 28.6569 26.3119 28.9916 25.547C29.135 25.2124 29.2784 24.8778 29.7086 25.0212C30.1388 25.1168 30.1866 25.4992 30.1866 25.7861ZM77.3682 50.5478V50.6912C77.416 51.9819 77.7984 53.0813 78.5154 54.1808C78.611 54.3242 78.7544 54.4676 78.8978 54.5632C79.1847 54.7544 79.5193 54.8022 79.8539 54.5632C80.1407 54.3242 80.2841 54.0374 80.1885 53.6549C80.1407 53.4159 80.0451 53.2247 79.9017 53.0335C79.3759 52.2209 78.9456 51.3604 78.8022 50.4044C78.7544 49.9742 78.611 49.4483 78.0852 49.4961C77.5116 49.5439 77.416 50.0698 77.3682 50.5478ZM66.612 20.1931C64.7477 19.9063 63.2658 19.0937 62.3098 17.4684C62.1664 17.2294 62.0708 16.9904 62.3576 16.7514C62.6922 16.5124 62.8834 16.7514 63.0268 16.9426C63.7439 17.9942 64.7955 18.4244 65.9906 18.6635C66.1101 18.6874 66.2416 18.7113 66.373 18.7352C66.5045 18.7591 66.6359 18.783 66.7554 18.8069C67.1856 18.9025 67.4724 19.0937 67.4246 19.5717C67.3303 20.0907 66.9565 20.144 66.625 20.1913L66.612 20.1931ZM30.9539 29.8974C31.5276 29.0369 31.8144 28.0331 32.0534 27.1248C32.1012 26.599 32.0534 26.2166 31.671 26.121C31.2886 26.0254 31.0973 26.3122 30.9539 26.599L29.5199 29.1803C29.4243 29.4193 29.3765 29.6106 29.3765 29.8496C29.3765 30.4232 29.8545 30.71 30.3803 30.4232C30.6193 30.3276 30.8105 30.1364 30.9539 29.8974ZM47.1559 22.1532C47.7295 22.201 48.2554 22.2488 48.6856 22.5356C49.0202 22.7268 49.1636 23.0136 49.068 23.3961C48.9724 23.7307 48.6856 23.8741 48.3988 23.9219C48.2076 23.9697 48.0164 23.9697 47.8252 23.9219C47.1081 23.7307 46.3433 23.6829 45.5784 23.6829C45.2916 23.6829 44.957 23.6351 44.8614 23.2527C44.7658 22.8224 45.0526 22.6312 45.3872 22.4878C45.9494 22.2536 46.5575 22.203 47.1215 22.1561L47.1559 22.1532ZM62.0716 20.9578C62.7887 21.8182 63.7925 22.2485 64.892 22.4875C65.37 22.5353 65.7524 22.2963 65.8002 22.0094C65.8002 21.5792 65.4656 21.4836 65.131 21.388C64.2705 21.1968 63.5535 20.7188 62.9321 20.0495C62.7409 19.8583 62.5975 19.7149 62.4062 19.5715C62.0238 19.2847 61.6892 19.4759 61.6414 19.9539C61.5936 20.3364 61.8326 20.671 62.0716 20.9578Z" fill="#202124"/>
<path d="M47.7758 85.3958C46.772 85.4436 45.8637 85.3002 45.0033 85.0612C42.6132 84.3919 41.4181 82.6233 40.7011 80.4244C40.6533 80.3288 40.6533 80.1853 40.6055 80.0897C40.5577 79.8029 40.6533 79.5639 40.9401 79.4683C41.2269 79.3727 41.4659 79.5161 41.6093 79.7551C41.944 80.3765 42.3264 80.9502 42.661 81.5238C43.3302 82.7189 44.3819 83.2925 45.6725 83.6271C47.6324 84.1051 49.5445 83.7705 51.361 83.0057C53.9423 81.954 56.2368 80.4722 58.2923 78.6557C58.7704 78.2732 59.2006 77.843 59.7742 77.5562C60.061 77.4128 60.3478 77.365 60.6347 77.604C60.8737 77.843 60.8259 78.1776 60.7303 78.4645C60.5868 78.7991 60.3 79.0859 60.0132 79.3249C57.3841 81.7628 54.4204 83.6749 50.9786 84.8222C49.8791 85.2524 48.8275 85.4914 47.7758 85.3958Z" fill="#202124"/>
<path d="M30.0385 43.903C29.2736 43.5684 28.8434 42.8992 28.6044 42.0865C27.7918 39.4574 28.222 36.9717 29.5126 34.5816C29.7039 34.1992 29.9907 33.8167 30.2297 33.4343C30.8989 32.6217 31.6637 33.0519 32.4286 33.2909C33.1456 33.5299 33.3368 34.1514 33.3368 34.8206C33.3368 35.8244 33.3368 36.8283 33.3368 37.7843C33.3846 38.2146 33.3368 38.597 33.3368 39.0272C33.3368 39.7442 33.6714 40.031 34.3885 40.031C35.1055 40.031 35.3923 39.6964 35.4401 38.9794C35.4879 37.8799 35.2967 36.7805 35.6313 35.7288C36.444 35.0118 37.3044 35.2986 37.4478 36.4459C37.5912 37.4497 37.7346 38.5014 37.7346 39.5052C37.7824 41.1783 38.0215 42.8514 38.2605 44.5245C38.4039 45.4805 38.8819 45.8629 39.7901 45.7673C42.1803 45.5283 44.5704 45.2893 46.9605 44.9547C48.3467 44.7635 48.6336 44.4767 48.6814 42.9948C48.7292 40.4613 48.8248 37.8799 48.6336 35.3464C48.538 34.0558 48.777 33.7689 50.0198 33.6255C51.0237 33.5299 51.9797 33.3865 52.9836 33.3387C53.844 33.2909 54.1308 33.6255 54.2264 34.4382C54.5132 37.1629 54.8479 39.8876 55.1347 42.6124C55.2781 44.0464 55.5171 44.2854 56.9512 44.142C59.6759 43.8074 62.4484 43.664 65.1254 43.2816C66.4638 43.0904 66.894 42.6602 66.7506 41.3217C66.5594 39.4096 66.5116 37.4975 66.2726 35.6332C66.2248 35.203 66.0814 34.725 66.3682 34.2948C67.0374 34.0558 67.1331 34.6294 67.3243 34.964C67.8501 35.9678 68.1369 37.0673 68.3759 38.2146C68.4715 38.6448 68.3281 39.2662 69.0451 39.2184C69.7622 39.1706 69.81 38.597 69.8578 38.0711C69.8578 36.2069 69.8578 34.3426 69.8578 32.4783C70.0012 30.9008 70.7182 30.5184 72.2479 31.2354C73.6342 32.7651 74.4946 34.486 74.5424 36.5415C74.5902 38.4058 73.921 39.9354 72.5347 41.1783C72.0567 40.9393 72.2001 40.2701 71.7221 39.9354C71.1006 40.6525 71.6265 41.8475 70.766 42.4212C69.0929 42.9948 69.1408 42.9948 69.1408 44.7635C69.1886 46.6756 69.1886 48.5877 68.9495 50.4997C68.5671 53.4635 67.2765 55.997 65.3644 58.2915C63.1655 60.8728 60.5841 62.8805 57.5248 64.3146C54.5611 65.6531 51.5017 65.8443 48.3946 64.9838C47.2951 64.697 46.2434 64.2668 45.144 63.8844C42.8495 63.1196 41.1286 61.5899 39.5989 59.7734C37.4 57.1921 36.0616 54.1805 35.2967 50.8822C34.8665 49.1135 34.4363 47.297 34.3407 45.4805C34.3407 45.3371 34.2929 45.1937 34.2451 45.0503C34.0061 43.903 33.6714 43.664 32.4764 43.903C32.2374 43.9508 32.0462 43.9986 31.8072 44.0464C31.3769 43.9508 31.3769 43.5684 31.2813 43.2816C31.1857 42.9948 31.1857 42.6124 30.8511 42.3734C30.2297 42.6602 30.8989 43.7118 30.0385 43.903Z" fill="#F1F3F4"/>
<path d="M56.9048 43.3772C56.4268 43.425 56.14 43.3772 56.0922 42.7558C55.8532 40.0788 55.5664 37.4497 55.2795 34.7728C55.2317 34.486 55.2795 34.247 55.2795 33.9601C55.2795 33.6255 55.423 33.4821 55.7576 33.4343C55.8532 33.4343 55.9966 33.3865 56.0922 33.3865C58.8647 33.1953 61.6373 33.0041 64.4576 33.2909C64.9356 33.3387 65.079 33.5299 65.1268 34.0079C65.4136 36.4937 65.7004 39.0272 65.9873 41.5129C66.0829 42.3255 66.0351 42.3734 65.2702 42.469C64.3142 42.6124 58.1955 43.2338 56.9048 43.3772Z" fill="#F1F3F4"/>
<path d="M47.8707 42.182C47.8707 42.5167 47.8707 42.7557 47.8707 42.9947C47.9185 44.1897 47.9185 44.1897 46.7713 44.3331C44.4289 44.62 42.0866 44.9068 39.7443 45.1936C38.9795 45.2892 38.9317 45.2892 38.8361 44.4765C38.6927 43.4727 38.5971 42.4211 38.5493 41.4172C38.4537 39.8875 38.358 38.3579 38.3102 36.8282C38.2624 35.7287 38.2624 35.7287 39.3141 35.5375C41.7998 35.1073 44.2855 34.7249 46.7713 34.3903C47.3449 34.2947 47.5361 34.4859 47.5361 35.0117C47.5361 35.2029 47.5839 35.3941 47.5839 35.5853C47.6317 37.832 47.6795 40.0787 47.8707 42.182Z" fill="#F1F3F4"/>
<path d="M61.349 72.6672C60.2496 70.1337 59.8194 67.6001 59.8672 64.971C59.4369 64.8276 59.1979 65.1622 58.9111 65.3056C55.8518 66.9787 52.5534 67.2655 49.2551 66.8831C47.6298 66.6919 46.1479 65.8315 44.6182 65.3056C44.2836 65.21 44.0446 64.9232 43.6144 65.0188C43.7578 68.2694 43.1842 71.4721 42.2281 74.6271C43.3754 74.5793 44.3792 74.2447 45.4787 74.3403C46.0045 74.3881 46.4825 74.4359 46.8649 74.7227C47.4386 75.1051 47.343 75.4397 46.7215 75.7743C45.7655 76.3002 44.7138 76.4436 43.6622 76.587C43.1999 76.6694 41.643 76.8634 41.3677 77.4363C41.5639 79.8253 42.2112 84.1403 47.8836 83.9293C55.6113 83.3576 63.3212 74.6808 61.6832 74.6271C58.8151 74.5315 62.3529 74.4837 59.4847 74.6749C58.9589 74.7227 58.3375 74.8183 58.1463 74.1491C58.0029 73.7188 58.3853 73.3842 59.2935 73.0974C59.9628 72.954 60.5842 72.8584 61.349 72.6672Z" fill="#F1F3F4"/>
<path fill-rule="evenodd" clip-rule="evenodd" d="M33.0512 37.6891C33.0512 37.3563 33.046 37.0181 33.0407 36.6782C33.03 35.9931 33.0193 35.3007 33.0512 34.6298C33.0512 34.0561 32.86 33.7215 32.2864 33.5781C32.1656 33.5459 32.0461 33.5096 31.9276 33.4736C31.3425 33.2959 30.7793 33.1248 30.1831 33.4825C30.1352 33.4873 30.0859 33.493 30.0358 33.4989C29.5854 33.5514 29.0693 33.6115 28.9402 33.0523C28.8446 32.4787 29.4183 32.2397 29.8963 32.0962C30.6133 31.8572 31.3303 31.905 32.0474 32.0962C33.1946 32.4309 34.2463 32.9567 35.2979 33.4825C35.422 33.5446 35.5462 33.6167 35.6735 33.6907C35.9387 33.8448 36.2179 34.0071 36.5408 34.1039C37.5644 34.371 38.5879 34.1822 39.5729 34.0006C39.6459 33.9872 39.7188 33.9737 39.7913 33.9605C42.9774 33.2985 46.235 32.8872 49.4713 32.4786C49.9738 32.4151 50.4759 32.3517 50.9771 32.2875C51.5507 32.2397 52.1243 32.2875 52.6502 32.4309C53.5584 32.3831 54.4667 32.2875 55.3271 31.8572C57.9084 31.427 60.4897 31.188 63.0711 31.6182C63.6858 31.9939 64.3736 32.0036 65.065 32.0133C65.3414 32.0172 65.6183 32.0211 65.8914 32.0484C66.1846 32.0851 66.3654 31.8689 66.5415 31.6583C66.5951 31.5942 66.6483 31.5306 66.704 31.4748L66.8497 31.3567C67.8057 30.5805 68.7764 29.7925 70.0502 29.6105C70.7672 29.5149 71.4365 29.5149 72.1057 29.7061C72.4403 29.8017 72.7749 29.8973 72.8705 30.2798C72.9661 30.71 72.7271 30.9968 72.3447 31.188C72.3208 31.2119 72.285 31.2358 72.2491 31.2597C72.2133 31.2836 72.1774 31.3075 72.1535 31.3314H71.2453C70.0502 31.3314 70.0502 31.3314 70.0024 32.5265C68.5683 32.0484 67.9469 32.3831 66.465 34.343C66.5277 35.0478 66.6006 35.7527 66.6737 36.4593C66.8237 37.909 66.9744 39.3657 67.0387 40.8441C67.0387 41.0353 67.0493 41.2265 67.0599 41.4177C67.0812 41.8001 67.1024 42.1826 67.0387 42.565C66.8475 43.4254 66.6084 43.6166 65.7002 43.7122C64.5529 43.8556 63.4057 43.999 62.3062 44.0946C61.6211 44.1584 60.9359 44.2274 60.2507 44.2965C58.8804 44.4346 57.5101 44.5726 56.1397 44.6683C55.0881 44.7639 54.9447 44.6204 54.8491 43.6166C54.5903 41.5898 54.3705 39.5631 54.1545 37.5714L54.0842 36.9243C54.0575 36.6834 54.0232 36.4424 53.9888 36.2004C53.9003 35.5783 53.8108 34.949 53.8452 34.2952C53.8452 33.9127 53.7018 33.7693 53.3194 33.8171C52.6741 33.8888 52.0287 33.9486 51.3834 34.0083C50.7381 34.0681 50.0927 34.1278 49.4474 34.1995C48.9216 34.2474 48.826 34.5342 48.8738 34.9644C49.1128 37.6413 49.1128 40.3182 49.0172 42.9952C49.0172 43.3107 48.9656 43.6262 48.9139 43.9417C48.8795 44.152 48.8451 44.3623 48.826 44.5726C48.7304 45.0985 48.3958 45.3853 47.9177 45.4331C46.5571 45.5692 45.1964 45.716 43.8307 45.8634C42.3177 46.0266 40.798 46.1906 39.2655 46.3413C38.2617 46.4369 38.2139 46.3891 37.9749 45.3853C37.6982 44.0414 37.5849 42.6321 37.4729 41.2385C37.4495 40.9467 37.4261 40.6557 37.4012 40.366C37.3534 39.7446 37.3176 39.1112 37.2817 38.4779C37.2459 37.8445 37.21 37.2111 37.1622 36.5897C37.1144 35.9204 36.5408 35.6336 35.8716 35.8726C35.5665 35.7617 35.3097 35.5703 35.0451 35.3731C34.8537 35.2305 34.6582 35.0848 34.4375 34.9644C33.7205 34.6298 33.6249 34.9644 33.5771 35.5858C33.5631 35.8226 33.5776 36.0634 33.5921 36.3047C33.6274 36.8917 33.6629 37.4817 33.2902 38.0237H33.1946C33.0512 37.8803 33.0512 37.7847 33.0512 37.6891ZM56.9048 43.3772C56.4268 43.425 56.14 43.3772 56.0922 42.7558C55.8743 40.3153 55.6167 37.9147 55.3555 35.4813L55.2795 34.7728C55.248 34.5834 55.2581 34.4149 55.2686 34.2397C55.274 34.1496 55.2795 34.0576 55.2795 33.9601C55.2795 33.6255 55.423 33.4821 55.7576 33.4343C55.8054 33.4343 55.8651 33.4224 55.9249 33.4105C55.9846 33.3985 56.0444 33.3865 56.0922 33.3865C58.8647 33.1953 61.6373 33.0041 64.4576 33.2909C64.9356 33.3387 65.079 33.5299 65.1268 34.0079C65.2698 35.2474 65.4128 36.4987 65.5559 37.7501L65.557 37.7605C65.7005 39.0153 65.8439 40.2701 65.9873 41.5129C66.0829 42.3255 66.0351 42.3734 65.2702 42.469C64.6055 42.5687 61.4445 42.8996 59.1463 43.1401C58.1396 43.2455 57.298 43.3335 56.9048 43.3772ZM47.8707 42.9947V42.182C47.6795 40.0787 47.6317 37.832 47.5839 35.5853C47.5839 35.4897 47.5719 35.3946 47.56 35.299C47.548 35.2034 47.5361 35.1073 47.5361 35.0117C47.5361 34.4859 47.3449 34.2947 46.7713 34.3903C44.2855 34.7249 41.7998 35.1073 39.3141 35.5375C38.7936 35.6321 38.5307 35.6804 38.4037 35.8379C38.2742 35.9985 38.2861 36.2729 38.3102 36.8282C38.358 38.3579 38.4537 39.8875 38.5493 41.4172C38.5971 42.4211 38.6927 43.4727 38.8361 44.4765C38.9317 45.2892 38.9795 45.2892 39.7443 45.1936L46.7713 44.3331C47.3382 44.2623 47.625 44.2269 47.7643 44.0645C47.9068 43.8984 47.8949 43.5991 47.8707 42.9947Z" fill="#202124"/>
<path d="M52.7001 32.3826C47.8721 32.9085 43.0441 33.4821 38.2639 34.5337C37.499 34.6771 37.021 34.5337 36.543 34.0557C36.8776 33.7689 37.2122 33.3865 37.5468 33.1475C38.3117 32.6216 38.6463 31.9046 38.7419 31.0442C38.8853 29.6101 38.7419 28.2238 38.3117 26.8854C38.0248 25.9771 37.9292 25.0211 38.216 23.9694C38.6463 24.304 38.7419 24.6865 38.9331 25.0211C39.3633 25.7381 39.7935 26.4551 40.3672 27.0766C41.2754 28.0326 42.3748 28.2716 43.5699 28.176C44.0957 28.1282 44.6216 28.0326 45.1474 27.937C45.9122 27.7936 46.5815 27.937 47.1551 28.4628C47.2507 28.5584 47.3941 28.654 47.4897 28.7497C48.9238 30.4227 50.6924 31.6178 52.7001 32.3826Z" fill="white"/>
<path d="M70.7227 42.4215C70.9617 41.8479 70.9617 41.2742 71.0573 40.6528C71.1051 40.4138 71.1051 40.127 71.2007 39.888C71.2485 39.649 71.2963 39.3143 71.6787 39.3622C72.0133 39.3622 72.1089 39.649 72.1567 39.888C72.3001 40.3182 72.3957 40.7484 72.4913 41.1786C72.6347 42.4215 72.7782 43.6644 72.9216 44.9072C73.1128 46.6759 73.3518 48.4924 73.543 50.2611C73.5908 50.5957 73.5908 50.9303 73.543 51.2649C73.4474 51.8386 72.9694 52.2688 72.4913 52.2688C71.9177 52.2688 71.5353 51.982 71.3441 51.4561C71.1529 50.9781 71.1051 50.5001 71.1051 49.9743C70.9617 47.6798 70.7705 45.3852 70.8661 43.0907C70.8661 42.8995 70.8661 42.6605 70.7227 42.4215Z" fill="white"/>
<path d="M30.0469 43.9029C30.3815 43.3293 30.1903 42.7079 30.3815 42.1342C30.4771 41.943 30.5249 41.6562 30.7639 41.6084C31.0986 41.5606 31.1942 41.8474 31.3376 42.0864C31.6244 42.6601 31.481 43.3771 31.8156 43.9507C31.72 44.62 31.8634 45.2414 31.959 45.8628C32.2458 48.1573 32.5326 50.4518 32.7716 52.7942C32.8672 53.8936 32.437 54.5628 31.6722 54.6106C31.003 54.6584 30.4293 54.0848 30.3337 53.0332C30.1425 50.404 29.9513 47.7749 30.0469 45.1458C30.0469 44.7634 30.0469 44.3332 30.0469 43.9029Z" fill="white"/>
<path d="M63.1268 31.5701C62.9834 31.7135 62.7922 31.7613 62.601 31.7135C60.4977 31.6657 58.4422 31.7613 56.3389 31.9525C56.0042 32.0003 55.6696 32.0959 55.3828 31.8091C56.1476 31.4267 56.7213 30.8052 57.5339 30.5184C59.0636 29.9448 60.4499 30.2794 61.8361 30.9008C62.2663 31.092 62.6966 31.331 63.1268 31.5701Z" fill="#E8EAED"/>
<path d="M66.5169 34.2468C66.5169 34.0078 66.4213 33.7209 66.6603 33.4819C67.5686 32.5737 69.0505 31.6654 70.2455 31.283C70.5801 31.5698 70.1021 36.7803 70.1499 38.9314C70.1499 39.2182 70.1021 39.4572 69.7197 39.505C69.4807 39.5528 69.1939 39.6484 68.9548 39.6962C68.1422 39.7918 68.0944 39.6962 67.9988 38.8358C67.9032 37.2105 67.473 35.633 66.5169 34.2468Z" fill="#202124"/>
<path d="M33.0588 37.6892C33.25 36.4941 33.0588 35.2991 33.25 34.0084C34.1105 34.2952 34.8275 34.7255 35.5445 35.1079C35.7835 35.2513 35.7357 35.4903 35.8313 35.6815C35.7835 37.02 35.7357 38.3584 35.7357 39.6969C35.7357 40.2227 35.5445 40.4139 35.0187 40.4617C33.011 40.5095 33.011 40.5095 33.0588 38.5018C33.0588 38.2628 33.0588 37.976 33.0588 37.6892Z" fill="#202124"/>
<path d="M50.9329 54.085C49.451 53.9894 48.1125 53.4635 46.9175 52.6031C46.8219 52.5075 46.6785 52.4119 46.6307 52.3163C46.4395 52.1251 46.3917 51.8861 46.4873 51.6471C46.6307 51.3602 46.9175 51.3124 47.2043 51.408C47.7779 51.5993 48.3037 51.8383 48.8774 52.0295C51.3631 52.8421 53.562 52.4119 55.4741 50.5476C56.0955 49.9262 56.5257 49.7828 56.9082 50.1174C57.2906 50.452 57.1472 51.0256 56.5735 51.6949C55.4741 52.9855 53.9922 53.5592 52.3669 53.8938C51.9367 53.9416 51.4109 54.0372 50.9329 54.085Z" fill="#202124"/>
<path d="M51.8881 42.5644C53.6568 42.182 54.7562 42.7556 55.2821 44.3331C55.7601 45.7672 55.0909 47.2491 53.6568 47.9661C52.7963 48.3963 51.2667 48.1573 50.5974 47.4881C50.3584 47.2491 50.1672 46.9623 50.4062 46.6276C50.5974 46.3408 50.8842 46.4364 51.1711 46.5798C51.4579 46.7232 51.7925 46.9145 52.1271 47.0579C53.0354 47.4403 53.9436 47.0579 54.326 46.054C54.7084 45.1936 54.2782 43.9985 53.5134 43.6639C53.0832 43.4727 52.7007 43.6161 52.3183 43.8551C51.3145 44.4765 50.8842 44.3331 50.5974 43.1859C50.4062 42.3254 50.2628 41.465 50.1194 40.6045C50.0716 40.4133 50.1194 40.2221 50.1672 40.0787C50.215 39.8397 50.4062 39.6485 50.693 39.6485C50.932 39.6485 51.0755 39.7919 51.1711 40.0309C51.3145 40.5567 51.4579 41.0348 51.5535 41.5606C51.6491 41.8952 51.6491 42.2776 51.8881 42.5644Z" fill="#202124"/>
<path d="M62.5496 47.4405C62.5018 47.9185 62.0716 48.2531 61.5936 48.2053C61.1156 48.1575 60.781 47.7751 60.8288 47.2493C60.8766 46.819 61.3068 46.4844 61.6892 46.4844C62.1672 46.5322 62.5974 47.0103 62.5496 47.4405Z" fill="#202124"/>
<path d="M63.6983 47.5364C63.2681 47.5364 62.8857 47.2018 62.8379 46.7716C62.8379 46.3413 63.1725 46.0067 63.6505 45.9589C64.0807 45.9589 64.4632 46.2935 64.511 46.676C64.511 47.154 64.1286 47.5364 63.6983 47.5364Z" fill="#202124"/>
<path d="M43.3345 48.827C43.2867 49.2095 42.9521 49.5441 42.5697 49.5441C42.1394 49.5441 41.757 49.1139 41.8048 48.7314C41.8526 48.349 42.2351 48.0144 42.5697 48.0144C42.9999 48.0144 43.3823 48.3968 43.3345 48.827Z" fill="#202124"/>
<path d="M62.5493 44.6679C62.5493 45.0504 62.3103 45.2894 61.9279 45.385C61.5933 45.4806 61.1152 45.0982 61.1152 44.7635C61.1152 44.3811 61.3542 44.0943 61.7367 44.0465C62.1191 43.9031 62.5015 44.2377 62.5493 44.6679Z" fill="#202124"/>
<path d="M41.3717 49.0178C41.3239 49.4003 41.1327 49.6393 40.7024 49.6871C40.2722 49.6871 40.0332 49.4481 40.0332 49.0656C40.0332 48.6832 40.2722 48.3964 40.6546 48.3964C41.1327 48.3486 41.3239 48.5876 41.3717 49.0178Z" fill="#202124"/>
<path d="M41.1816 46.2934C41.2772 45.9588 41.4685 45.7676 41.8509 45.8154C42.1855 45.8632 42.3767 46.0544 42.3767 46.3412C42.3767 46.6758 42.1377 46.9148 41.7553 46.9148C41.4207 46.867 41.2294 46.628 41.1816 46.2934Z" fill="#202124"/>
<path d="M59.7301 41.9435C59.2999 41.083 59.3477 40.1748 59.3955 39.2665C59.3955 39.0753 59.4911 38.8363 59.5389 38.6451C59.6823 38.2627 60.0169 38.0237 60.4471 38.0237C60.8295 38.0237 61.0686 38.3105 61.1642 38.6929C61.4988 39.7446 61.451 40.7962 61.2598 41.8479C61.0207 42.8039 60.0169 42.7083 59.7301 41.9435Z" fill="#202124"/>
<path d="M60.1133 35.0124C60.1133 35.2992 59.9699 35.4904 59.7787 35.6339C59.3485 36.0641 59.0617 36.5421 58.8227 37.1157C58.7749 37.3069 58.6315 37.4981 58.5359 37.6416C58.2968 37.9284 57.9622 38.024 57.5798 37.8328C57.2452 37.6416 57.1018 37.3547 57.1496 36.9723C57.2452 36.1119 58.4881 34.7256 59.3485 34.5822C59.7787 34.5344 60.1133 34.6778 60.1133 35.0124Z" fill="#202124"/>
<path d="M46.2929 41.7518C46.2929 41.8474 46.2929 41.9908 46.2929 42.1342C46.2929 42.5645 46.0538 42.8991 45.6236 42.9469C45.1934 43.0425 44.8588 42.8035 44.7154 42.4211C44.572 41.9908 44.4286 41.5606 44.3808 41.1304C44.2852 40.6524 44.2852 40.1743 44.2852 39.6485C44.2852 38.9793 44.5242 38.6447 44.9544 38.6447C45.528 38.5969 45.7192 38.9793 45.8626 39.4573C46.1016 40.1743 46.2451 40.9392 46.2929 41.7518Z" fill="#202124"/>
<path d="M41.3691 38.5497C41.656 37.498 42.0384 36.3986 42.9944 35.6337C43.1378 35.5381 43.2812 35.4425 43.4724 35.4425C43.9983 35.3469 44.3807 35.7294 44.0939 36.1596C43.5202 37.0678 43.2334 38.0717 42.7554 39.0277C42.5642 39.4101 42.2774 39.6491 41.7994 39.5057C41.4647 39.3623 41.4169 38.9799 41.3691 38.5497Z" fill="#202124"/>
<path d="M32.4339 53.3678C32.4339 53.8166 32.07 54.1805 31.6212 54.1805C31.1724 54.1805 30.8086 53.8166 30.8086 53.3678C30.8086 52.919 31.1724 52.5552 31.6212 52.5552C32.07 52.5552 32.4339 52.919 32.4339 53.3678Z" fill="#202124"/>
<path d="M73.2093 50.9299C73.2093 51.3788 72.8454 51.7426 72.3966 51.7426C71.9478 51.7426 71.584 51.3788 71.584 50.9299C71.584 50.4811 71.9478 50.1173 72.3966 50.1173C72.8454 50.1173 73.2093 50.4811 73.2093 50.9299Z" fill="#202124"/>
</svg>
