<svg width="100" height="100" viewBox="0 0 100 100" fill="none" xmlns="http://www.w3.org/2000/svg">
<path d="M21.4939 20.817C13.6436 27.3612 8.3473 33.7691 8.3473 33.7691C-0.460282 43.6941 4.82174 61.0177 17.8391 64.8989C27.5635 67.8009 38.2731 60.0727 48.0027 62.9704C57.742 65.8696 66.5127 79.3757 76.2565 82.2809C81.8336 83.9484 87.0478 82.6006 90.8531 79.4284C95.9302 75.196 98.4999 67.7044 96.0818 59.7662C96.0818 59.7662 80.0181 14.5452 57.6342 7.89893C45.1827 4.1941 31.3302 12.6173 21.4939 20.817Z" fill="#20BEFF"/>
<path d="M21.4939 20.817C13.6436 27.3612 8.3473 33.7691 8.3473 33.7691C-0.460282 43.6941 4.82174 61.0177 17.8391 64.8989C27.5635 67.8009 38.2731 60.0727 48.0027 62.9704C57.742 65.8696 66.5127 79.3757 76.2565 82.2809C81.8336 83.9484 87.0478 82.6006 90.8531 79.4284C95.9302 75.196 98.4999 67.7044 96.0818 59.7662C96.0818 59.7662 80.0181 14.5452 57.6342 7.89893C45.1827 4.1941 31.3302 12.6173 21.4939 20.817Z" fill="#20BEFF"/>
<path d="M14.5206 22.5093C17.7764 18.2461 22.1146 15.6791 27.284 14.4684C30.5027 13.7146 33.7585 13.5147 37.0486 14.0829C39.7503 14.5512 42.0408 15.8561 44.2199 17.4238C46.7846 19.3369 48.8095 21.8126 51.0885 24.0227C51.3199 24.2483 51.4655 24.5681 51.951 24.748C52.5651 23.0119 52.3566 21.4157 51.5169 19.848C51.1885 19.2341 50.6116 18.7173 50.7201 17.9206C53.2705 15.9561 56.1379 15.4935 59.2281 16.1731C61.7956 16.7385 63.3807 18.3461 64.1032 20.8503C64.5545 22.4179 64.7058 24.017 64.7001 25.6417C64.6944 27.1637 64.6687 28.6885 64.703 30.2104C64.7544 32.4976 64.933 34.6081 67.1635 35.1563C67.7176 35.2905 69.6838 36.8037 70.2207 36.9921C75.9127 39.0023 78.9538 42.3223 77.0146 48.0646C76.2035 50.466 74.3204 52.9052 73.278 55.1981C72.7439 56.3774 71.8029 57.2143 71.683 58.5107C71.4688 60.8093 72.3227 62.5997 74.2305 63.8789C75.273 64.5785 76.4325 65.0154 77.6748 65.1696C80.1938 65.4837 82.59 66.2718 84.9747 67.0827C86.2513 67.5168 87.3423 68.2906 88.3419 69.1901C91.4664 72.0055 93.7112 75.3407 94.4537 79.561C94.7821 81.4256 95.0103 88.7553 93.1857 90.9628C93.1028 93.7383 78.8258 100.52 74.4333 92.8845C71.4631 87.7219 68.1387 82.7905 64.1204 78.3646C61.8042 75.8175 59.1995 73.5989 56.2493 71.8114C52.9621 69.8211 49.3607 69.4556 45.7821 70.5121C42.1408 71.5886 40.1873 74.4384 39.379 78.0762C39.2248 78.7701 39.1963 79.4896 39.082 80.1949C38.9992 80.7118 38.7222 81.0915 38.1652 81.1344C37.6369 81.1743 37.2428 80.9145 37.0314 80.4319C36.6373 79.5296 36.6202 78.593 36.8001 77.6365C37.2199 75.3892 38.2195 73.4133 39.6218 71.6372C40.2073 70.8948 40.8584 70.198 41.5267 69.4271C41.0155 69.0102 40.4329 69.1958 39.9045 69.1729C34.5296 68.9416 29.186 68.4619 23.9225 67.2883C23.4598 67.1855 22.9971 67.0685 22.5373 66.9457C21.0437 66.5431 21.0608 66.5488 20.4153 67.8651C20.0583 68.5876 19.6357 69.2786 19.233 69.981C19.033 70.3294 18.7703 70.6321 18.3219 70.4407C17.9392 70.278 17.9963 69.9096 18.0335 69.5784C18.1334 68.6789 18.3533 67.8052 18.5732 66.9286C18.8217 65.932 18.7217 65.7892 17.7393 65.518C16.8225 65.2667 15.9 65.0382 14.9804 64.7927C14.3378 64.6214 13.778 64.3073 13.9037 63.5391C14.0237 62.7996 14.632 62.6054 15.3031 62.594C16.4084 62.5769 17.4708 62.8367 18.5361 63.0851C19.5528 63.3221 19.5585 63.3193 19.8042 62.3827C20.0698 61.3719 20.3068 60.3496 20.5924 59.3445C20.7523 58.7848 20.6324 58.4936 20.0498 58.2709C12.7042 55.4611 9.16564 49.7559 7.949 42.2975C8.05426 41.6563 7.71376 40.1217 7.949 39.5651C8.18424 39.0085 8.32298 39.9163 8.28037 39.9298C9.99016 40.6499 10.1473 40.7665 10.7032 41.4182C11.3344 44.4221 12.3472 47.3374 14.0722 49.9073C16.7825 53.9477 20.6238 55.8237 25.3819 56.0322C26.3786 56.075 27.3782 56.0151 28.3492 56.332C29.1261 56.5833 29.5373 57.083 29.5173 57.9111C29.4973 58.7477 29.029 59.236 28.255 59.4187C27.1355 59.6843 25.9874 59.77 24.8564 59.5672C23.814 59.3788 23.3541 59.8328 23.1714 60.7808C22.5602 63.9589 21.7605 63.7876 25.4304 64.5785C29.4831 65.4523 33.59 65.8578 37.7254 66.0262C38.4394 66.0548 39.1477 66.0919 39.8503 66.2261C40.8499 66.4174 41.1926 66.0291 41.1583 64.9897C41.0755 62.4284 40.887 59.8556 41.4153 57.3143C42.0694 54.1733 42.9576 51.1265 45.0367 48.5795C45.8193 47.6201 46.6389 46.6863 47.8699 46.2723C48.7181 46.2266 49.0779 46.9119 49.5606 47.4116C52.1253 50.0729 55.3725 50.0672 57.7772 47.4859C59.5679 45.5641 59.5651 41.1354 56.5749 39.759C55.9608 39.4763 55.1954 39.2708 55.0184 38.4341C55.0127 37.8859 55.2583 37.4119 55.561 36.9921C56.2207 36.0869 56.315 35.0761 56.2436 34.0139C56.1636 32.8432 55.7324 31.8894 54.6071 31.3926C53.4133 30.8672 52.388 31.3126 51.4455 32.0465C50.9914 32.3977 50.6944 32.8974 50.3231 33.3257C49.8433 33.8797 49.2779 34.1367 48.5581 33.8083C47.8984 33.5085 47.6042 32.9174 47.7985 32.2921C48.1669 31.1013 47.5871 30.9928 46.6275 30.9186C45.785 30.8501 44.9168 30.8986 44.0857 30.6616C43.3688 30.4246 42.969 29.8192 42.5006 29.2938C40.8013 27.3921 38.9535 25.7388 36.2175 25.5675C35.1208 25.499 34.0526 25.6589 32.9874 25.8759C32.3876 25.9987 31.7936 26.2071 31.1824 25.9416C28.2122 24.4225 25.5789 22.4522 23.4027 19.9166C22.7373 19.1399 22.1832 19.0999 21.3607 19.6767C19.8099 20.7618 18.5875 22.2323 17.0053 23.2746C16.0628 23.3888 15.1346 23.4687 14.5206 22.5093Z" fill="#202124"/>
<path d="M21.3047 16.813C23.4242 15.5699 25.7089 14.3636 27.9968 13.8309C32.8492 12.701 38.2554 12.459 42.4432 15.4542C45.3866 12.5279 51.3223 13.1134 53.5753 16.4732C58.2284 14.6044 62.6189 15.757 64.1133 20.9061C64.9913 23.9387 65.7337 28.3076 65.8042 31.4199C65.8742 34.5153 69.2057 36.3662 71.5789 37.1944C77.2887 39.1992 79.6725 42.8336 77.7272 48.5604C76.5292 52.0867 72.9497 54.8156 72.598 58.5949C72.2591 62.2104 74.6169 63.9481 78.033 64.3696C81.6998 64.8242 86.4294 66.2687 89.2428 68.7856C92.377 71.5935 94.2727 75.4468 95.0176 79.6557C95.347 81.5153 94.9308 87.3818 93.6588 91.2052C91.408 97.9706 78.7027 101.198 74.2964 93.583C71.317 88.4343 67.1176 82.7109 63.0867 78.297C58.6707 74.2207 52.5562 69.8047 44.9873 70.8238C42.0258 71.2225 41.6538 71.4578 41.3464 69.1253C41.2312 66.6499 41.1588 66.7977 41.0967 64.9263C40.9129 59.2734 41.2036 53.1686 44.9873 48.5604C45.7722 47.6035 46.5945 46.6723 47.8292 46.2594C48.6801 46.2138 49.0411 46.8973 49.5252 47.3957C52.0979 50.0497 55.3553 50.044 57.7675 47.4697C59.5638 45.5532 59.561 41.1364 56.5614 39.7638C55.9455 39.4818 55.1777 39.2768 55 38.4424C54.9943 37.8956 55.2407 37.4229 55.5444 37.0043C56.7156 35.4067 56.5992 32.303 54.5875 31.4199C52.7139 30.6001 51.3832 32.0942 50.2902 33.3478C49.8089 33.9003 49.2416 34.1566 48.5197 33.8291C47.8579 33.5301 47.5628 32.9406 47.7576 32.3169C48.1272 31.1294 47.5456 31.0212 46.583 30.9472C45.7379 30.8788 44.8669 30.9273 44.0332 30.6909C43.3142 30.4545 42.9131 29.8508 42.4432 29.3268C39.7636 26.3454 36.8127 25.1257 32.9003 25.9181C32.2987 26.0406 31.7028 26.2484 31.0897 25.9836C28.1102 24.4686 25.4688 22.5037 23.2857 19.9749C22.0872 18.5842 21.6696 18.7687 21.3047 16.813Z" fill="#BDC1C6"/>
<path d="M78.0736 69.207C78.2162 69.2274 78.4065 69.2274 78.5899 69.275C82.5439 70.2465 85.968 72.0604 88.3934 75.4777C88.7195 75.9397 88.9776 76.456 89.2358 76.9724C89.3445 77.1966 89.297 77.4479 89.0863 77.6246C88.8214 77.842 88.5428 77.7944 88.3119 77.5974C88.1352 77.4479 87.9722 77.2577 87.8499 77.0607C85.8253 73.8064 82.7885 71.9381 79.3033 70.6881C78.8141 70.5114 78.3182 70.3348 77.8358 70.1446C77.5708 70.0427 77.2651 69.8932 77.3263 69.5535C77.3942 69.207 77.7339 69.207 78.0736 69.2138V69.207Z" fill="#202124"/>
<path fill-rule="evenodd" clip-rule="evenodd" d="M73.3259 71.9652C73.3259 71.9652 73.3123 71.9652 73.3055 71.9652H73.2852L73.2648 71.9584C73.2444 71.9584 73.2172 71.9449 73.1765 71.9313C73.061 71.8973 72.8775 71.843 72.7349 71.775C68.9983 70.029 65.9139 67.5357 64.1543 63.6156C63.9165 63.0857 63.7602 62.5286 63.6108 61.9987C63.6108 61.9783 63.5972 61.958 63.5972 61.9444C63.4885 61.5435 63.6651 61.1495 64.032 60.9457C64.2494 60.8302 64.4804 60.7894 64.7046 60.8506C64.922 60.9117 65.0918 61.0476 65.2209 61.2106C65.384 61.4212 65.5266 61.6658 65.6217 61.9172C66.9397 65.4092 69.4874 67.7735 72.6262 69.6553C73.0746 69.9271 73.5297 70.1989 73.9713 70.4774C74.0936 70.5521 74.2703 70.6744 74.3926 70.8375C74.5352 71.0277 74.6032 71.2791 74.4877 71.5712C74.4333 71.7071 74.3518 71.8158 74.2363 71.8973C74.1208 71.9788 73.9985 72.0128 73.8898 72.0196C73.6928 72.04 73.4754 71.9992 73.3259 71.9652Z" fill="#202124"/>
<path fill-rule="evenodd" clip-rule="evenodd" d="M48.6434 61.124C48.6434 61.124 48.6366 61.1172 48.6298 61.1104L48.6162 61.0968V61.0832C48.6162 61.0832 48.5755 61.0425 48.5551 61.0085C48.4871 60.9066 48.3852 60.7503 48.3173 60.6009C46.6256 56.8439 45.9123 52.9375 47.142 48.8204C47.305 48.2633 47.5564 47.7402 47.7874 47.2442C47.7942 47.2239 47.801 47.2103 47.8146 47.1899C47.9912 46.8162 48.3852 46.6328 48.7929 46.7211C49.0307 46.7755 49.2345 46.8977 49.3635 47.088C49.4858 47.2714 49.5266 47.4888 49.5198 47.6994C49.5062 47.9712 49.4519 48.2429 49.3635 48.4943C48.0863 51.9999 48.4668 55.458 49.6217 58.9296C49.7848 59.4255 49.9478 59.9283 50.1041 60.431C50.1448 60.5669 50.1992 60.7707 50.1856 60.9745C50.172 61.2123 50.0565 61.4501 49.778 61.5928C49.6489 61.6607 49.513 61.6879 49.3703 61.6743C49.2345 61.6607 49.119 61.6064 49.0239 61.5452C48.8608 61.4297 48.7249 61.2599 48.6298 61.1376L48.6434 61.124Z" fill="#202124"/>
<path fill-rule="evenodd" clip-rule="evenodd" d="M70.1458 39.0222C70.1458 39.0222 70.1322 38.995 70.1186 38.9814C70.0371 38.8387 69.908 38.6281 69.7314 38.4787C69.6227 38.3904 69.4868 38.3156 69.3169 38.302C69.1471 38.2817 68.9772 38.3224 68.8142 38.4107C68.6715 38.4855 68.556 38.5806 68.4813 38.7097C68.4066 38.8387 68.3794 38.9746 68.3726 39.0969C68.3726 39.3279 68.4609 39.5589 68.5288 39.7219C68.5492 39.7627 68.5628 39.8035 68.5832 39.8442C68.6376 39.9801 68.6919 40.1024 68.7395 40.2315C69.6702 42.7927 69.7246 45.3472 68.8074 47.9153C68.7802 47.9832 68.7598 48.0512 68.7327 48.1259C68.5968 48.4996 68.4609 48.8868 68.3386 49.274C68.325 49.3216 68.3047 49.376 68.2843 49.4303C68.2639 49.4847 68.2435 49.5526 68.2231 49.6137C68.1824 49.736 68.1484 49.8855 68.1416 50.0417C68.1416 50.2048 68.1688 50.3882 68.2911 50.5513C68.4066 50.7143 68.5832 50.823 68.7938 50.8978C68.9908 50.9657 69.1811 50.9793 69.3577 50.9317C69.5411 50.8842 69.6702 50.7755 69.7721 50.66C69.9216 50.4833 70.0235 50.2388 70.0846 50.0757C70.0982 50.0485 70.105 50.0214 70.1118 50.001C70.8591 48.1938 71.5113 46.2984 71.3687 44.1515C71.3687 44.0768 71.3687 44.002 71.3619 43.9273C71.3415 43.1732 71.3143 42.3308 71.1445 41.4951C70.961 40.5983 70.6078 39.7899 70.1458 39.029V39.0222Z" fill="#202124"/>
<path d="M67.8633 55.2601C67.8089 55.5047 67.7546 56.0074 67.5779 56.4558C67.4624 56.7411 67.1431 56.9042 66.8034 56.8023C66.4977 56.7072 66.4502 56.4286 66.4434 56.1501C66.4434 55.6473 66.4977 55.1582 66.7015 54.6962C66.851 54.3565 67.1227 54.2206 67.4421 54.2818C67.8089 54.3497 67.8904 54.669 67.8633 55.2601Z" fill="#202124"/>
<path d="M90.3441 81.1859C90.3577 82.0488 90.1199 82.4972 89.6919 82.4088C89.0125 82.273 89.2503 81.7023 89.2231 81.2811C89.1891 80.8327 89.2706 80.3979 89.8481 80.425C90.3577 80.4522 90.3305 80.887 90.3441 81.1859Z" fill="#202124"/>
<path fill-rule="evenodd" clip-rule="evenodd" d="M44.5939 21.3795C44.5939 21.3795 44.5682 21.3633 44.5486 21.3546C44.4064 21.2724 44.1939 21.1424 43.9734 21.0935C43.8395 21.0668 43.6827 21.0651 43.5192 21.131C43.3625 21.1976 43.235 21.3148 43.1251 21.461C43.0375 21.589 42.9824 21.7338 42.9746 21.8832C42.9668 22.0326 43.0083 22.1664 43.066 22.2744C43.1753 22.4831 43.3642 22.6449 43.4969 22.7535C43.5349 22.7845 43.5667 22.8081 43.6046 22.8391C43.7184 22.9321 43.8193 23.0171 43.9195 23.1088C45.9467 24.925 47.2027 27.1573 47.6012 29.8517C47.6149 29.9213 47.6211 29.997 47.6341 30.0733C47.691 30.468 47.7534 30.8769 47.8307 31.2735C47.8396 31.3222 47.8478 31.3776 47.856 31.433C47.8636 31.4952 47.8779 31.558 47.8855 31.6202C47.9074 31.7452 47.9469 31.8993 48.0155 32.0357C48.0901 32.1795 48.2054 32.3273 48.3881 32.4134C48.5708 32.4996 48.7743 32.5127 48.9966 32.473C49.198 32.4381 49.3756 32.3667 49.5112 32.2367C49.6468 32.1066 49.7101 31.9489 49.7449 31.8022C49.7944 31.5749 49.7655 31.3127 49.7415 31.1397C49.7441 31.1126 49.7332 31.0843 49.7352 31.064C49.5438 29.1134 49.2185 27.1361 48.079 25.318C48.0444 25.2532 48.003 25.1877 47.9684 25.1229C47.5891 24.4646 47.1759 23.7347 46.6323 23.0808C46.0528 22.3756 45.3486 21.8288 44.5871 21.3789L44.5939 21.3795Z" fill="#202124"/>
<path d="M15.5576 24.8091C14.8316 25.8746 14.1084 26.94 13.3823 28.0054C12.7886 28.66 12.5015 29.4704 12.2314 30.2893L12.2398 30.2694C12.0203 30.414 12.0597 30.6718 11.9697 30.873L11.9809 30.8475C10.83 32.9982 10.8328 35.4181 10.3769 37.7331C10.2925 38.1581 10.4895 38.8099 9.6565 38.484C8.79258 38.025 8.20444 37.3846 8.23539 36.3276C8.05529 35.6532 8.18193 34.9789 8.22695 34.3045C8.92203 31.4539 9.83379 28.694 11.4153 26.1948C11.7192 25.7159 11.9866 25.2115 12.5747 25.0273C13.6666 24.1376 14.3222 24.0894 15.5576 24.8091Z" fill="#202124"/>
<path d="M10.6992 41.4196C11.2521 41.5508 11.805 41.6848 12.3579 41.8159C16.1113 42.7026 20.6029 40.8494 22.6378 37.5794C23.1451 36.7611 23.4415 35.8659 23.678 34.9422C23.9203 33.9985 24.2395 33.7391 24.9947 33.7533C25.9609 33.7733 26.5936 34.2237 26.7731 35.0733C26.9099 35.7205 26.9641 36.3876 27.098 37.0348C28.3007 42.7881 33.9779 45.8387 39.4612 43.7289C44.9104 41.6335 46.7771 35.8916 44.577 31.3642C44.4117 31.0249 44.2036 30.6971 44.1979 30.3008C45.697 30.3778 47.1904 30.5431 48.6524 30.469C48.8947 30.9166 48.5783 31.1675 48.47 31.4526C48.3332 31.8118 48.2392 32.1653 48.262 32.5531C48.2933 33.1119 48.661 33.3485 49.1255 33.5509C49.6471 33.7761 49.9264 33.4825 50.1943 33.1404C50.5106 32.7298 50.7643 32.2651 51.1205 31.8945C52.1123 30.8681 53.3178 30.4006 54.72 30.8624C56.1479 31.3328 56.7378 32.4761 56.8803 33.8959C56.9715 34.8082 56.8319 35.6806 56.3787 36.496C56.0111 37.1574 55.6691 37.8302 55.3157 38.4974C54.9908 38.9279 54.5034 38.9165 54.0389 38.9706C50.3909 39.3983 48.5755 41.4424 48.6296 45.0575C48.6353 45.468 48.7778 45.9156 48.3731 46.2407C45.7283 47.8401 44.0953 50.2377 43.0978 53.0916C42.0718 56.0253 41.536 59.0502 41.6586 62.1691C41.7042 63.3067 41.67 64.4442 41.8267 65.5818C41.935 66.3629 41.7526 66.5625 41.0031 66.5197C35.0808 66.1776 29.1586 65.807 23.3873 64.2789C22.1704 63.9567 22.1675 63.9168 22.481 62.7308C22.7233 61.8156 22.9313 60.8919 23.1422 59.971C23.3788 58.9333 23.5156 58.7964 24.6043 58.9618C25.6958 59.13 26.7788 59.0787 27.8647 59.0188C28.1468 59.0045 28.4318 58.9618 28.7054 58.8819C29.2782 58.7194 29.5604 58.3003 29.5632 57.7187C29.5661 57.1314 29.2839 56.7066 28.7083 56.5555C27.7364 56.299 26.7332 56.3047 25.7386 56.2875C23.9659 56.259 22.253 55.9312 20.5915 55.3239C18.4512 54.5427 16.5759 53.3396 15.168 51.5464C12.9764 48.7552 11.2692 45.7104 10.742 42.1267C10.7049 41.8958 10.7106 41.6563 10.6992 41.4196Z" fill="#F1F3F4"/>
<path d="M31.5292 25.7317C31.412 26.0001 31.2262 26.2029 30.9861 26.3686C29.1684 27.6482 28.0652 29.4276 27.3536 31.4955C27.0335 32.4324 27.0049 32.2667 25.9589 32.2953C24.3298 32.3353 23.7467 31.4498 23.3323 30.0874C22.5749 27.5882 20.9516 25.7088 18.8166 24.2435C18.2765 23.8722 17.6277 23.6352 17.2676 23.0354C18.6251 21.3502 20.4028 20.1448 22.0834 18.831C22.5721 18.4482 22.9236 18.5796 23.2837 19.0223C25.5759 21.8186 28.4596 23.8894 31.5292 25.7317Z" fill="#F1F3F4"/>
<path d="M40.6569 29.1589C38.5315 28.8196 36.5804 27.9861 34.667 27.0385C34.9225 26.6817 35.3087 26.6437 35.6948 26.6086C37.6256 26.439 39.8294 27.5737 40.6569 29.1589Z" fill="#202124"/>
<path d="M19.5417 27.4218C19.3934 27.4104 19.2992 27.3334 19.265 27.1879C19.4276 27.1822 19.5217 27.2592 19.5417 27.4218Z" fill="#DADCE0"/>
<path d="M22.2932 42.8929C21.9468 44.3907 24.2999 43.3742 24.986 43.4517C25.626 43.5235 25.8422 43.9025 25.5712 44.4194C25.0667 45.3842 22.9334 46.0045 21.6851 45.5536C20.4714 45.1143 19.8776 43.8738 20.2091 42.507C20.4282 41.5996 20.9903 40.9104 21.835 40.6405C23.0574 40.2471 23.4321 39.3828 23.5417 38.2629C23.5648 38.0246 23.5532 37.7834 23.5936 37.5479C23.6945 36.9621 24.0347 36.5515 24.6458 36.5773C25.2253 36.6003 25.6231 36.9564 25.701 37.5651C25.8768 38.9004 25.5622 40.2136 25.3949 41.5431C25.2912 42.3586 24.8049 41.831 24.0755 41.8569C23.6172 41.8712 22.6507 42.2842 22.2932 42.8929Z" fill="#202124"/>
<path d="M23.9828 50.5489C22.2587 50.5719 21.8291 50.2575 21.8291 49.2797C21.8291 48.5471 22.0874 48.2211 22.7894 48.1375C23.1123 48.1 23.4437 48.149 23.7694 48.1202C24.7269 48.0394 25.5917 47.7337 26.2656 46.9866C26.4229 46.8107 26.5801 46.6289 26.757 46.4761C27.386 45.9251 27.9813 45.83 28.3828 46.2367C28.8966 46.7587 28.6327 47.2924 28.3463 47.8058C27.2905 49.698 25.631 50.4854 23.9828 50.5489Z" fill="#202124"/>
<path d="M52.9205 37.4301C52.3802 37.4131 51.9823 37.0167 52.0803 36.4901C52.2347 35.652 52.7572 35.0235 53.5618 34.678C54.307 34.3581 54.9601 34.8423 54.9156 35.6209C54.8711 36.408 53.7162 37.4527 52.9205 37.4301Z" fill="#202124"/>
<path fill-rule="evenodd" clip-rule="evenodd" d="M32.1062 25.4512C31.8763 25.4894 31.6463 25.5276 31.4166 25.5689C31.137 25.6041 30.9142 25.7499 30.6868 25.8988C30.675 25.9065 30.6632 25.9142 30.6515 25.9219C28.927 27.0775 27.8592 28.7285 27.1825 30.6328C26.8428 31.5893 26.3231 31.7828 25.3552 31.6348C24.2039 31.4567 23.9015 30.6511 23.5826 29.8017C23.5701 29.7685 23.5577 29.7353 23.5451 29.702C22.3574 26.5566 20.2675 24.2481 17.1668 22.879C16.7952 22.8622 15.0844 22.5415 14.6201 22.3125C14.1926 22.5136 13.7344 22.5782 13.2768 22.6428C13.0803 22.6705 12.8839 22.6982 12.69 22.7366C10.9798 23.0725 9.45235 23.7671 8.1647 24.9569C4.74429 28.1194 3.98198 32.967 6.44022 37.2623C6.57336 37.4944 6.68902 37.699 6.79243 37.8819C7.36765 38.8993 7.56407 39.2467 8.28176 39.9295C8.59426 40.1185 8.89019 40.2783 9.17446 40.4318C9.6551 40.6914 10.1024 40.9329 10.5401 41.2674C12.4045 42.6394 14.5173 42.5141 16.5387 41.9704C20.0876 41.0169 22.7657 38.9759 23.8278 35.2584C24.0048 34.6492 24.2846 34.06 25.0812 34.1454C25.7921 34.2223 26.1433 34.7204 26.2889 35.3723C26.3424 35.6145 26.3895 35.8583 26.4366 36.1024C26.5152 36.5094 26.594 36.9171 26.7029 37.3193C27.7849 41.3471 30.8884 44.1679 34.6172 44.5067C39.2853 44.9308 43.2624 42.8358 44.9469 38.7624C46.1575 35.8362 46.2146 32.8559 44.099 30.1745C43.8542 29.9096 43.6119 29.6421 43.3695 29.3744C42.8202 28.7678 42.2706 28.1609 41.6921 27.5842C39.408 25.3013 36.6786 24.4787 33.5008 25.1932C33.0396 25.2962 32.5733 25.3736 32.1062 25.4512ZM8.68418 34.2626C9.48355 30.9499 10.7762 27.8474 12.7037 25.0262C12.2965 24.7513 11.919 24.9188 11.5369 25.0883C11.528 25.0922 11.5192 25.0962 11.5103 25.1001C10.4984 25.5433 9.63946 26.1882 9.0215 27.1031C7.28668 29.6657 6.78211 32.4216 7.82243 35.3934C8.12291 35.7997 8.36953 35.8934 8.49709 35.2797C8.52142 35.1636 8.51133 35.0412 8.50124 34.9188C8.48195 34.6848 8.46269 34.451 8.68418 34.2626Z" fill="#202124"/>
<path d="M40.5728 29.2234C41.883 30.3691 42.9462 31.6826 43.3542 33.4055C43.9978 36.1235 42.6243 39.7399 39.843 41.1388C38.188 41.9718 36.4727 42.4864 34.6022 42.1992C31.1255 41.6619 28.8297 39.0064 28.6861 35.4014C28.5941 33.0331 29.367 30.9349 30.8066 29.0784C31.7605 27.8473 33.0822 27.2474 34.6424 27.1621C36.7485 27.4948 38.6765 28.3136 40.5728 29.2234Z" fill="#F1F3F4"/>
<path d="M19.8641 27.8174C22.7845 30.6679 22.0837 35.0699 20.1731 37.3297C17.8477 40.0827 13.686 40.8225 10.4797 38.9987C9.74175 37.8602 10.4196 36.6959 10.4969 35.566C10.5941 34.1666 10.9802 32.7786 11.4951 31.4508C11.5294 31.3132 11.5809 31.1784 11.641 31.0465C11.7239 30.8572 11.8183 30.6708 11.9127 30.4873C11.967 30.364 12.0299 30.2464 12.0929 30.1259C12.4733 29.4262 12.7993 28.6978 13.1483 27.9809C13.9635 26.9456 14.2781 25.5175 15.5909 24.8809C16.675 25.0042 17.5159 25.572 18.2481 26.3405C18.5268 26.6938 19.5152 27.4274 19.581 27.5364L19.6039 27.5564C19.7183 27.6253 19.8012 27.7113 19.8641 27.8174Z" fill="#F1F3F4"/>
<path d="M34.0976 33.7613C34.089 34.922 32.9798 36.0214 31.8362 36.0047C30.9843 35.9936 30.3925 35.4285 30.3897 34.6214C30.384 33.4885 31.5018 32.3167 32.6081 32.2972C33.5401 32.2805 34.1061 32.8372 34.0976 33.7613Z" fill="#202124"/>
<path d="M37.232 32.2075C37.1294 33.2259 36.8469 34.1454 36.4675 35.0358C36.342 35.3326 36.1109 35.4956 35.7914 35.4141C35.5119 35.3443 35.4691 35.0911 35.4605 34.8438C35.4263 33.5838 35.3436 32.3384 34.9841 31.1163C34.8672 30.7264 35.0611 30.3539 35.4348 30.1386C35.8856 29.8767 36.2593 30.0688 36.5902 30.3801C37.1236 30.8894 37.1294 31.5906 37.232 32.2075Z" fill="#202124"/>
<path d="M16.992 26.9653C17.9096 26.6824 18.5146 27.1096 19.0009 27.8082L19.0096 27.8337C19.2498 28.0797 19.053 28.4446 19.2585 28.702C19.2411 29.8617 19.354 31.0384 18.7346 32.1104C18.4046 32.6846 18.0717 32.7299 17.6462 32.2688C16.7634 31.3099 16.3755 28.1674 16.992 26.9653Z" fill="#202124"/>
<path d="M16.1259 30.9487C16.0833 32.32 14.9308 33.4917 13.6788 33.4367C12.7676 33.3962 12.2651 32.8205 12.461 31.915C12.6994 30.8186 13.3637 29.9969 14.3829 29.5659C15.3452 29.1551 16.16 29.8378 16.1259 30.9487Z" fill="#202124"/>
<path d="M48.5126 45.6497C48.1499 41.6345 50.8904 38.4968 54.9852 38.2171C55.5816 38.1776 57.758 38.6664 58.2499 38.9229L58.3573 38.9804C61.8139 40.8769 62.68 45.5292 60.1191 48.5696C57.4752 51.7079 53.0087 51.7439 50.0381 48.6813C49.5096 48.1348 48.5697 46.2604 48.5126 45.6497Z" fill="#202124"/>
<path d="M54.7942 40.97C55.8963 40.9289 57.3573 41.9315 57.677 42.8755C57.8088 43.2654 57.8312 43.667 57.4779 43.9337C57.1414 44.1859 56.732 44.1595 56.4459 43.8692C55.7757 43.195 55.1391 42.4914 54.2951 42.037C54.0735 41.9198 54.009 41.6501 54.0931 41.4009C54.2221 41.0022 54.5895 41.0286 54.7942 40.97Z" fill="#F1F3F4"/>
<path d="M82.7048 98C78.7897 98 75.4511 96.1873 73.6075 93.0018C70.3494 87.3706 67.0577 82.7656 63.5582 78.9337C57.5314 72.3427 49.4723 69.4438 44.0153 71.0432C43.4119 71.2165 42.8555 71.4564 42.346 71.743L41.3471 70.0036C41.9907 69.6371 42.6946 69.3438 43.4455 69.1239C49.7137 67.2846 58.4431 70.3701 65.0465 77.5875C68.6466 81.5327 72.0187 86.2443 75.3505 92.0022C77.717 96.094 82.0612 96.1207 83.8177 95.9474C87.6724 95.5609 91.0513 93.2351 92.0233 90.3028C93.2636 86.5775 93.5183 81.1862 93.2368 79.6067C92.5999 76.0214 90.7362 72.8759 87.525 70.0036C85.4065 68.111 82.0478 66.8647 77.5494 66.3116C73.3192 65.7918 70.403 62.513 70.7583 58.6944C70.9125 57.055 71.9449 55.3356 73.1382 53.343C74.888 50.4308 76.8723 47.132 76.1751 43.6599C75.6254 40.9409 73.1248 39.7414 70.4767 38.4751C67.4264 37.0157 63.9605 35.363 63.8666 31.0445C63.7527 26.1663 63.2365 20.3085 60.1794 18.3092C58.6241 17.2896 56.4118 17.3496 53.5961 18.4758C53.1537 18.6557 52.6442 18.4958 52.3827 18.1026C51.5045 16.7964 49.8821 15.9101 48.0318 15.7235C46.1614 15.5369 44.3581 16.11 43.205 17.2496C42.8564 17.5961 42.3066 17.6428 41.9044 17.3562C36.139 13.2311 27.397 15.317 21.7254 19.0023L20.626 17.1536C29.1534 11.6089 37.5468 12.2847 42.4139 15.2903C43.9625 14.0841 46.0408 13.5176 48.233 13.7375C50.3715 13.9508 52.309 14.9105 53.5693 16.3499C56.7068 15.237 59.3012 15.337 61.2923 16.6365C65.1069 19.1356 65.7504 25.3 65.8845 30.9979C65.9516 34.0901 68.4589 35.283 71.355 36.6691C74.1975 38.0286 77.4154 39.5614 78.1595 43.2601C79.0109 47.4852 76.7182 51.2971 74.8746 54.3627C73.8488 56.0687 72.8768 57.6814 72.7695 58.8677C72.4812 61.9665 75.1494 63.9858 77.8042 64.3123C82.7249 64.9255 86.4523 66.3316 88.8792 68.5041C92.439 71.6896 94.5105 75.2017 95.2278 79.2469C95.5898 81.2995 95.2077 87.104 93.9407 90.9159C92.7071 94.6279 88.7183 97.4469 84.0255 97.92C83.5763 97.9667 83.1406 97.9867 82.7048 97.9867V98Z" fill="#202124"/>
<path d="M41.4351 69.7911C41.4283 69.1661 41.4147 68.5071 41.3943 67.8141C41.2245 60.5651 40.9799 49.6067 48.4395 45.7818L48.6297 45.6799L48.8471 45.6663C50.0836 45.6052 50.7426 46.3864 51.1842 46.9028C51.2657 47.0047 51.354 47.0998 51.4424 47.1949C52.5973 48.3974 53.8949 49.0292 55.1926 49.0292C55.2061 49.0292 55.2129 49.0292 55.2265 49.0292C56.4766 49.0156 57.6927 48.4178 58.7457 47.29C59.5882 46.3864 59.9686 44.722 59.6833 43.2545C59.5406 42.5411 59.1058 41.2571 57.781 40.6457C57.6995 40.6049 57.6111 40.5709 57.5296 40.537C56.891 40.2652 55.8244 39.8032 55.5526 38.5124L55.5322 38.3154C55.5254 37.3846 55.9467 36.6645 56.2796 36.1957C57.4413 34.3002 56.9386 32.5678 55.8787 31.8884C54.7917 31.1955 53.4533 31.7729 52.3867 33.3967C51.7345 34.4429 50.3757 34.803 49.1732 34.2391C48.0387 33.7092 47.5019 32.5474 47.8688 31.4129C47.8824 31.3789 47.8892 31.3449 47.896 31.311C47.7737 31.2974 47.631 31.2838 47.5495 31.277C46.1704 31.2974 43.6906 31.277 42.359 29.1369C39.0708 25.6313 36.9376 25.6925 34.4714 25.7604C31.2987 25.8487 27.2272 25.8064 21.5 18.999L23.5334 17.832C28.6219 23.8853 31.4278 23.8106 34.4035 23.7291C37.1346 23.6543 39.954 23.5728 43.9148 27.8325L44.0507 28.0092C44.6621 29.0554 45.8103 29.2456 47.5767 29.2456H47.6582C48.3036 29.3 49.1936 29.3679 49.6828 30.0949C50.1787 30.8218 49.9002 31.739 49.8051 32.0379C49.7847 32.1058 49.7303 32.2621 50.0292 32.398C50.0292 32.398 50.4776 32.6018 50.6679 32.3029C52.6381 29.3 55.2469 29.0758 56.9725 30.1764C58.8612 31.3857 59.8667 34.2934 57.9984 37.3031L57.9576 37.3643C57.7266 37.6904 57.6044 37.9485 57.5772 38.1863C57.6451 38.3426 57.8218 38.4445 58.3381 38.6687C58.44 38.7162 58.5419 38.757 58.6438 38.8045C60.2336 39.5383 61.3206 40.9854 61.6874 42.874C62.1019 44.9801 61.5244 47.3172 60.2471 48.6963C58.8069 50.2453 57.0812 51.0674 55.2537 51.0878C53.3854 51.0878 51.5443 50.2521 49.9817 48.6284C49.8662 48.5061 49.7507 48.377 49.6352 48.2411C49.3702 47.9286 49.2344 47.7928 49.1189 47.7452C43.052 51.1217 43.2762 60.735 43.4392 67.787C43.4528 68.4799 43.4732 69.1525 43.48 69.7843L41.4419 69.8115L41.4351 69.7911Z" fill="#202124"/>
</svg>
