<svg width="102" height="17" viewBox="0 0 102 17" fill="none" xmlns="http://www.w3.org/2000/svg">
<path d="M22.5 1H3C1.89543 1 1 1.89543 1 3V14.5C1 15.6046 1.89543 16.5 3 16.5H22.5C23.6046 16.5 24.5 15.6046 24.5 14.5V3C24.5 1.89543 23.6046 1 22.5 1Z" fill="white" stroke="black" stroke-opacity="0.2" stroke-width="0.5"/>
<path d="M3.53773 6.66444C3.01459 6.37751 2.41754 6.14674 1.75 5.98659L1.778 5.86188H4.51498C4.88596 5.87489 5.18699 5.98651 5.28495 6.38071L5.87977 9.21659L6.06198 10.0707L7.72797 5.86188H9.52679L6.85288 12.0275H5.05397L3.53773 6.66444ZM10.85 12.0341H9.14883L10.2128 5.86188H11.9139L10.85 12.0341ZM17.0168 6.01277L16.7854 7.34559L16.6316 7.28004C16.3237 7.15525 15.9174 7.03054 15.3644 7.04371C14.6927 7.04371 14.3915 7.31277 14.3845 7.57546C14.3845 7.86441 14.7489 8.05484 15.3439 8.33725C16.324 8.77719 16.7786 9.31557 16.7718 10.0182C16.7581 11.2986 15.596 12.1261 13.8111 12.1261C13.0479 12.1194 12.3128 11.9681 11.9138 11.7976L12.1519 10.412L12.3759 10.5107C12.9289 10.7407 13.2928 10.839 13.972 10.839C14.4618 10.839 14.9869 10.6484 14.9936 10.2349C14.9936 9.96565 14.7699 9.76851 14.1117 9.46646C13.4678 9.17087 12.6068 8.67848 12.6208 7.79198C12.6281 6.59042 13.8111 5.75 15.491 5.75C16.149 5.75 16.6812 5.88789 17.0168 6.01277ZM19.2778 9.84749H20.6917C20.6218 9.53889 20.2996 8.06147 20.2996 8.06147L20.1807 7.52964C20.0967 7.75943 19.9499 8.13373 19.9569 8.12056C19.9569 8.12056 19.4178 9.4929 19.2778 9.84749ZM21.3776 5.86188L22.75 12.034H21.1749C21.1749 12.034 21.0208 11.3248 20.9719 11.1081H18.7878C18.7246 11.2722 18.4308 12.034 18.4308 12.034H16.6458L19.1726 6.37399C19.3477 5.97342 19.656 5.86188 20.0618 5.86188H21.3776Z" fill="#1434CB"/>
<path d="M49 1H29C27.8954 1 27 1.89543 27 3V15C27 16.1046 27.8954 17 29 17H49C50.1046 17 51 16.1046 51 15V3C51 1.89543 50.1046 1 49 1Z" fill="#252525"/>
<path d="M36 14C38.7614 14 41 11.7614 41 9C41 6.23858 38.7614 4 36 4C33.2386 4 31 6.23858 31 9C31 11.7614 33.2386 14 36 14Z" fill="#EB001B"/>
<path d="M42 14C44.7614 14 47 11.7614 47 9C47 6.23858 44.7614 4 42 4C39.2386 4 37 6.23858 37 9C37 11.7614 39.2386 14 42 14Z" fill="#F79E1B"/>
<path fill-rule="evenodd" clip-rule="evenodd" d="M39 5C40.2144 5.91221 41 7.36455 41 9.00037C41 10.6362 40.2144 12.0885 39 13.0007C37.7856 12.0885 37 10.6362 37 9.00037C37 7.36455 37.7856 5.91221 39 5V5Z" fill="#FF5F00"/>
<path d="M100 1H80C78.8954 1 78 1.89543 78 3V15C78 16.1046 78.8954 17 80 17H100C101.105 17 102 16.1046 102 15V3C102 1.89543 101.105 1 100 1Z" fill="#016FD0"/>
<path fill-rule="evenodd" clip-rule="evenodd" d="M91.7637 14.3938V8.69238L101.911 8.70149V10.2764L100.738 11.5298L101.911 12.7947V14.403H100.039L99.0434 13.3048L98.0553 14.4071L91.7637 14.3938Z" fill="#FFFFFE"/>
<path fill-rule="evenodd" clip-rule="evenodd" d="M92.4414 13.7692V9.32031H96.2137V10.3452H93.6628V11.0409H96.1529V12.0487H93.6628V12.732H96.2137V13.7692H92.4414Z" fill="#016FD0"/>
<path fill-rule="evenodd" clip-rule="evenodd" d="M96.1954 13.7691L98.2827 11.5421L96.1953 9.32031H97.811L99.0865 10.7303L100.366 9.32031H101.912V9.35532L99.8689 11.5421L101.912 13.706V13.7691H100.35L99.0519 12.3449L97.7671 13.7691H96.1954Z" fill="#016FD0"/>
<path fill-rule="evenodd" clip-rule="evenodd" d="M92.2369 3.63184H94.6829L95.5421 5.58269V3.63184H98.5619L99.0827 5.09341L99.6052 3.63184H101.911V9.33323H89.7246L92.2369 3.63184Z" fill="#FFFFFE"/>
<path fill-rule="evenodd" clip-rule="evenodd" d="M92.7006 4.25195L90.7266 8.69712H92.0805L92.4529 7.80696H94.4708L94.843 8.69712H96.2306L94.2648 4.25195H92.7006ZM92.8702 6.80939L93.4622 5.39432L94.0538 6.80939H92.8702Z" fill="#016FD0"/>
<path fill-rule="evenodd" clip-rule="evenodd" d="M96.2129 8.69606V4.25098L98.116 4.25752L99.0953 6.99025L100.081 4.25098H101.913V8.69606L100.734 8.70649V5.65314L99.6213 8.69606H98.5455L97.4099 5.64271V8.69606H96.2129Z" fill="#016FD0"/>
<path d="M57.5459 1H63.3396C64.1484 1 64.6514 1.72566 64.4627 2.61891L61.7653 15.3675C61.575 16.2576 60.7652 16.9839 59.9559 16.9839H54.1627C53.3551 16.9839 52.8509 16.2576 53.0396 15.3675L55.7381 2.61891C55.9268 1.72566 56.7361 1 57.5459 1" fill="#DD2423"/>
<path d="M62.858 1H69.5207C70.3293 1 69.9647 1.72566 69.7745 2.61891L67.0775 15.3675C66.8882 16.2576 66.9473 16.9839 66.137 16.9839H59.4743C58.6639 16.9839 58.1625 16.2576 58.3528 15.3675L61.0497 2.61891C61.2412 1.72566 62.0488 1 62.858 1" fill="#16315E"/>
<path d="M69.2562 1H75.0499C75.8598 1 76.3628 1.72566 76.1726 2.61891L73.4756 15.3675C73.2853 16.2576 72.475 16.9839 71.6652 16.9839H65.8741C65.0638 16.9839 64.5612 16.2576 64.751 15.3675L67.4484 2.61891C67.6371 1.72566 68.4459 1 69.2562 1" fill="#036862"/>
<path d="M59.0584 5.08599C58.4626 5.09267 58.2866 5.08599 58.2304 5.07137C58.2088 5.18439 57.8068 7.22598 57.8056 7.22769C57.7191 7.64074 57.6561 7.93517 57.4421 8.12529C57.3207 8.23582 57.1789 8.28914 57.0145 8.28914C56.7503 8.28914 56.5964 8.14472 56.5705 7.87081L56.5656 7.77676C56.5656 7.77676 56.6461 7.22349 56.6461 7.22039C56.6461 7.22039 57.068 5.3599 57.1436 5.11397C57.1476 5.09998 57.1487 5.09267 57.1497 5.08599C56.3283 5.09391 56.1827 5.08599 56.1727 5.07137C56.1672 5.09143 56.1469 5.20677 56.1469 5.20677L55.716 7.30371L55.679 7.48155L55.6074 8.06326C55.6074 8.23582 55.6382 8.37666 55.6995 8.49574C55.8958 8.87334 56.4557 8.92993 56.7725 8.92993C57.1806 8.92993 57.5634 8.83448 57.8222 8.66021C58.2712 8.36811 58.3887 7.91154 58.4935 7.5058L58.5421 7.29765C58.5421 7.29765 58.9768 5.36534 59.0506 5.11397C59.0534 5.09998 59.0546 5.09267 59.0584 5.08599V5.08599ZM60.5373 6.6448C60.4325 6.6448 60.241 6.67278 60.069 6.76559C60.0066 6.80087 59.9476 6.8416 59.8853 6.88218L59.9415 6.65879L59.9107 6.62117C59.546 6.70247 59.4643 6.71335 59.1274 6.76559L59.0991 6.78626C59.06 7.14334 59.0253 7.41181 58.8803 8.11369C58.825 8.37237 58.7677 8.63353 58.7102 8.89159L58.7258 8.92439C59.071 8.90434 59.1758 8.90434 59.4759 8.90978L59.5002 8.88071C59.5383 8.66571 59.5433 8.61535 59.6277 8.17992C59.6674 7.97347 59.7502 7.51985 59.791 7.35834C59.866 7.32009 59.94 7.28247 60.0106 7.28247C60.1788 7.28247 60.1583 7.44399 60.1518 7.50835C60.1446 7.61639 60.0833 7.96927 60.0205 8.27226L59.9785 8.46782C59.9493 8.61224 59.9172 8.75261 59.888 8.89579L59.9007 8.92439C60.241 8.90434 60.3448 8.90434 60.6355 8.90978L60.6696 8.88071C60.7222 8.54493 60.7376 8.45507 60.8308 7.96617L60.8777 7.74153C60.9687 7.30191 61.0145 7.07898 60.9456 6.89741C60.8727 6.69392 60.6979 6.6448 60.5373 6.6448V6.6448ZM62.1895 7.10508C62.0086 7.14333 61.8932 7.16882 61.7785 7.1853C61.6648 7.20535 61.554 7.22354 61.3792 7.25028L61.3653 7.26411L61.3526 7.27515C61.3344 7.41848 61.3217 7.54238 61.2975 7.68804C61.2771 7.83868 61.2456 8.00983 61.1943 8.25576C61.1546 8.44402 61.1341 8.50962 61.1115 8.57585C61.0895 8.64207 61.0652 8.70643 61.0206 8.89157L61.031 8.90867L61.0398 8.92438C61.2032 8.91583 61.3101 8.90976 61.42 8.90867C61.5297 8.90432 61.6434 8.90867 61.8193 8.90976L61.8347 8.89593L61.8512 8.88069C61.8767 8.71373 61.8805 8.66881 61.896 8.58735C61.9114 8.49998 61.938 8.37904 62.0031 8.056C62.0338 7.90428 62.0682 7.75302 62.1001 7.59819C62.1333 7.44398 62.168 7.2921 62.201 7.14037L62.1961 7.12203L62.1895 7.10508ZM62.1933 6.48448C62.0289 6.37768 61.7404 6.41157 61.5463 6.55909C61.3526 6.70367 61.3306 6.90887 61.4944 7.01707C61.656 7.12091 61.9456 7.08997 62.1381 6.9412C62.3313 6.79352 62.3554 6.59019 62.1933 6.48448V6.48448ZM63.1874 8.95785C63.52 8.95785 63.8609 8.85695 64.1175 8.55755C64.3149 8.31473 64.4054 7.95345 64.4368 7.80468C64.5389 7.31158 64.4594 7.08135 64.3595 6.94113C64.2079 6.72738 63.9398 6.65882 63.6618 6.65882C63.4946 6.65882 63.0963 6.67701 62.7852 6.99274C62.5618 7.22048 62.4586 7.52952 62.3963 7.82582C62.3335 8.12771 62.2612 8.67119 62.7152 8.87343C62.8553 8.93966 63.0572 8.95785 63.1874 8.95785V8.95785ZM63.1614 7.84836C63.2381 7.47496 63.3286 7.16156 63.5597 7.16156C63.7407 7.16156 63.7539 7.39474 63.6734 7.76939C63.659 7.85256 63.5929 8.16176 63.5035 8.29343C63.4411 8.39059 63.3672 8.44951 63.2856 8.44951C63.2613 8.44951 63.1168 8.44951 63.1146 8.21337C63.1134 8.09678 63.135 7.9777 63.1614 7.84836ZM65.2681 8.90983L65.2941 8.88075C65.331 8.66576 65.3371 8.61524 65.4187 8.17996C65.4595 7.97352 65.5439 7.5199 65.5836 7.35838C65.6588 7.31999 65.7315 7.28237 65.8043 7.28237C65.9714 7.28237 65.9511 7.44388 65.9444 7.50824C65.9384 7.61644 65.8771 7.96917 65.8131 8.27215L65.7734 8.46771C65.7431 8.61228 65.71 8.7525 65.6808 8.89583L65.6935 8.92444C66.035 8.90438 66.1348 8.90438 66.4271 8.90983L66.4624 8.88075C66.5137 8.54482 66.5275 8.45496 66.6236 7.96621L66.6693 7.74142C66.7608 7.3018 66.8071 7.07903 66.7394 6.89746C66.6644 6.69397 66.4884 6.64484 66.3301 6.64484C66.2252 6.64484 66.0327 6.67267 65.8617 6.76563C65.8005 6.80092 65.7392 6.84149 65.6791 6.88222L65.7315 6.65883L65.7034 6.62106C65.3388 6.70252 65.2554 6.7134 64.9189 6.76563L64.8931 6.78631C64.8523 7.14339 64.8191 7.4117 64.674 8.11374C64.6188 8.37242 64.5615 8.63358 64.5041 8.89164L64.5195 8.92444C64.8654 8.90438 64.9686 8.90438 65.2681 8.90983V8.90983ZM67.777 8.92436C67.7984 8.80901 67.9259 8.12532 67.9271 8.12532C67.9271 8.12532 68.0357 7.62367 68.0423 7.60548C68.0423 7.60548 68.0765 7.55325 68.1107 7.53257H68.1609C68.6353 7.53257 69.1709 7.53257 69.5908 7.19259C69.8765 6.95941 70.0718 6.61507 70.1589 6.19659C70.1815 6.09399 70.1982 5.97196 70.1982 5.84992C70.1982 5.68965 70.1689 5.53109 70.0845 5.40719C69.8704 5.07747 69.444 5.0714 68.9519 5.06892C68.9503 5.06892 68.7093 5.0714 68.7093 5.0714C68.0793 5.07995 67.8267 5.07747 67.7229 5.06348C67.7141 5.114 67.6976 5.20385 67.6976 5.20385C67.6976 5.20385 67.4719 6.35515 67.4719 6.35702C67.4719 6.35702 66.9319 8.80481 66.9065 8.92016C67.4565 8.91286 67.6821 8.91286 67.777 8.92436V8.92436ZM68.1951 6.87919C68.1951 6.87919 68.435 5.73022 68.4339 5.73458L68.4417 5.67566L68.4451 5.63073L68.541 5.64161C68.541 5.64161 69.0358 5.68841 69.0474 5.68965C69.2427 5.77282 69.3232 5.98719 69.267 6.26701C69.2157 6.52273 69.065 6.73773 68.8714 6.84157C68.712 6.92956 68.5167 6.93687 68.3154 6.93687H68.1852L68.1951 6.87919ZM69.689 7.86964C69.6256 8.16718 69.5527 8.71066 70.0045 8.90435C70.1485 8.97182 70.2776 8.99187 70.4088 8.98457C70.5473 8.97633 70.6757 8.89984 70.7946 8.78978C70.7838 8.83502 70.7731 8.88026 70.7624 8.92565L70.7829 8.95472C71.1078 8.93964 71.2086 8.93964 71.5607 8.9426L71.5926 8.91586C71.644 8.58318 71.6924 8.26015 71.826 7.62371C71.8911 7.31887 71.9561 7.01697 72.0229 6.71337L72.0124 6.67995C71.6489 6.7541 71.5518 6.76995 71.2021 6.82452L71.1756 6.8483C71.1721 6.87924 71.1684 6.90893 71.165 6.93862C71.1106 6.84193 71.0318 6.75938 70.9102 6.70793C70.7548 6.64062 70.3896 6.72736 70.0756 7.042C69.855 7.26663 69.7491 7.57443 69.689 7.86964V7.86964ZM70.4524 7.88783C70.5302 7.52111 70.6196 7.21082 70.8512 7.21082C70.9976 7.21082 71.0748 7.3596 71.0591 7.6133C71.0467 7.67657 71.0332 7.74326 71.0173 7.81865C70.9941 7.92763 70.969 8.03567 70.9445 8.14387C70.9197 8.21786 70.8907 8.28766 70.859 8.33414C70.7994 8.42711 70.6576 8.48478 70.576 8.48478C70.5528 8.48478 70.4099 8.48478 70.405 8.25284C70.4038 8.13734 70.4254 8.01841 70.4524 7.88783ZM74.4391 6.67698L74.411 6.64169C74.0513 6.7219 73.9862 6.73465 73.6557 6.78377L73.6314 6.81051C73.6303 6.81486 73.6293 6.82155 73.6276 6.82761L73.6265 6.82155C73.3805 7.44632 73.3877 7.31154 73.1875 7.8034C73.1863 7.78102 73.1863 7.76703 73.1852 7.74324L73.1351 6.67698L73.1036 6.64169C72.7268 6.7219 72.7179 6.73465 72.3699 6.78377L72.3428 6.81051C72.339 6.82326 72.339 6.83725 72.3368 6.85249L72.339 6.85793C72.3825 7.10261 72.3721 7.04805 72.4157 7.4342C72.436 7.6237 72.4631 7.81429 72.4835 8.00145C72.5178 8.3147 72.537 8.46891 72.5789 8.94693C72.344 9.37381 72.2883 9.53533 72.0621 9.90998L72.0636 9.91371L71.9043 10.191C71.8861 10.2203 71.8696 10.2403 71.8464 10.2489C71.821 10.2627 71.788 10.2652 71.7421 10.2652H71.6538L71.5226 10.7455L71.9727 10.7541C72.2369 10.7529 72.403 10.6168 72.4924 10.434L72.7754 9.90018H72.7709L72.8007 9.86256C72.991 9.41143 74.4391 6.67698 74.4391 6.67698V6.67698ZM69.689 12.9857H69.498L70.2047 10.4128H70.4391L70.5135 10.1477L70.5207 10.4425C70.512 10.6247 70.6422 10.7862 70.9842 10.7595H71.3798L71.5159 10.264H71.3671C71.2815 10.264 71.2418 10.2402 71.2467 10.1893L71.2395 9.88938H70.507V9.89093C70.2702 9.89637 69.563 9.91596 69.4198 9.95793C69.2465 10.0071 69.0639 10.1516 69.0639 10.1516L69.1357 9.88627H68.4505L68.3077 10.4128L67.5916 13.0251H67.4526L67.3163 13.5169H68.6811L68.6353 13.6809H69.3078L69.3524 13.5169H69.5411L69.689 12.9857ZM69.129 10.9356C69.0193 10.969 68.8151 11.0704 68.8151 11.0704L68.9967 10.4128H69.5411L69.4098 10.8919C69.4098 10.8919 69.2416 10.9028 69.129 10.9356ZM69.1395 11.875C69.1395 11.875 68.9685 11.8986 68.8559 11.9266C68.7451 11.9636 68.5372 12.0802 68.5372 12.0802L68.7247 11.3959H69.2719L69.1395 11.875ZM68.8344 12.9918H68.2884L68.4467 12.4143H68.9911L68.8344 12.9918ZM70.1496 11.3959H70.9367L70.8236 11.7991H70.026L69.9062 12.24H70.6041L70.0757 13.0591C70.0387 13.1193 70.0055 13.1406 69.9687 13.1575C69.9317 13.1782 69.8831 13.2024 69.8269 13.2024H69.6333L69.5002 13.6853H70.0066C70.2699 13.6853 70.4254 13.5535 70.5402 13.3804L70.9025 12.8345L70.9803 13.3888C70.9969 13.4927 71.0647 13.5535 71.1106 13.5771C71.1612 13.6051 71.2136 13.6531 71.2876 13.6603C71.367 13.664 71.4243 13.6669 71.4625 13.6669H71.7113L71.8607 13.1266H71.7626C71.7062 13.1266 71.6092 13.1162 71.5927 13.0967C71.5761 13.0731 71.5761 13.0367 71.5673 12.9814L71.4883 12.4258H71.1651L71.3068 12.24H72.1029L72.2253 11.7991H71.4883L71.6031 11.3959H72.3379L72.4742 10.8986H70.2836L70.1496 11.3959ZM63.5012 13.1041L63.685 12.4313H64.4401L64.578 11.9309H63.8222L63.9376 11.5167H64.6762L64.813 11.0322H62.965L62.831 11.5167H63.2509L63.1389 11.9309H62.7179L62.5784 12.4398H62.9981L62.7532 13.33C62.7202 13.4478 62.7687 13.4927 62.7995 13.5474C62.831 13.6008 62.8629 13.6361 62.9347 13.6561C63.0087 13.6743 63.0594 13.6852 63.1283 13.6852H63.9796L64.1312 13.1308L63.7539 13.1879C63.681 13.1879 63.4792 13.1782 63.5012 13.1041V13.1041ZM63.5879 9.88324L63.3965 10.2639C63.3555 10.3471 63.3187 10.3987 63.2855 10.4225C63.2563 10.4426 63.1984 10.451 63.1145 10.451H63.0146L62.8812 10.938H63.2128C63.3722 10.938 63.4946 10.8736 63.5531 10.8415C63.616 10.8045 63.6325 10.8256 63.6811 10.774L63.793 10.6672H64.8285L64.9659 10.1601H64.2079L64.3403 9.88324H63.5879ZM65.1165 13.1139C65.0988 13.0859 65.1115 13.0366 65.1385 12.934L65.4215 11.9029H66.4282C66.575 11.9005 66.6809 11.8987 66.7498 11.8932C66.8238 11.8847 66.9043 11.8556 66.992 11.8034C67.0825 11.7487 67.1288 11.691 67.1679 11.6248C67.2116 11.5587 67.2816 11.4141 67.3418 11.1912L67.6975 9.8863L66.6528 9.89299C66.6528 9.89299 66.3311 9.94522 66.1894 10.0029C66.0465 10.0673 65.8423 10.247 65.8423 10.247L65.9367 9.88925H65.2913L64.3878 13.1879C64.3557 13.316 64.3342 13.4089 64.3293 13.4647C64.3276 13.5249 64.3982 13.5844 64.444 13.6293C64.4981 13.6743 64.578 13.667 64.6547 13.6743C64.7353 13.681 64.85 13.6852 65.0083 13.6852H65.5042L65.6565 13.1193L65.2125 13.1655C65.165 13.1655 65.1307 13.1375 65.1165 13.1139ZM65.6041 11.2064H66.6615L66.5943 11.4384C66.5849 11.4438 66.5623 11.4269 66.4546 11.4409H65.539L65.6041 11.2064ZM65.8159 10.4285H66.8823L66.8056 10.7079C66.8056 10.7079 66.303 10.7024 66.2225 10.7188C65.8683 10.7862 65.6614 10.9945 65.6614 10.9945L65.8159 10.4285ZM66.618 12.2151C66.6092 12.2497 66.5954 12.2709 66.576 12.2867C66.5546 12.302 66.5198 12.3074 66.468 12.3074H66.3173L66.3262 12.0249H65.6995L65.6741 13.4059C65.6731 13.5055 65.6818 13.5632 65.7481 13.6093C65.8143 13.667 66.0184 13.6743 66.293 13.6743H66.6858L66.8275 13.1574L66.4857 13.1781L66.372 13.1854C66.3564 13.1781 66.3416 13.1714 66.3251 13.1532C66.3107 13.1375 66.2864 13.1472 66.2904 13.0475L66.293 12.6936L66.6516 12.6772C66.8452 12.6772 66.928 12.6079 66.9986 12.5418C67.0659 12.4786 67.088 12.4058 67.1134 12.3074L67.1735 11.994H66.6808L66.618 12.2151Z" fill="#FEFEFE"/>
</svg>
